<svg xmlns="http://www.w3.org/2000/svg" xmlns:xlink="http://www.w3.org/1999/xlink" width="600" zoomAndPan="magnify" viewBox="0 0 450 374.999991" height="500" preserveAspectRatio="xMidYMid meet" version="1.0"><defs><clipPath id="6d82ddd3ef"><path d="M 199 311 L 321 311 L 321 368.859375 L 199 368.859375 Z M 199 311 " clip-rule="nonzero"/></clipPath><clipPath id="1afbb4d47e"><path d="M 308 222 L 382.949219 222 L 382.949219 328 L 308 328 Z M 308 222 " clip-rule="nonzero"/></clipPath><clipPath id="0fd6120ddf"><path d="M 68 6 L 382.949219 6 L 382.949219 368 L 68 368 Z M 68 6 " clip-rule="nonzero"/></clipPath></defs><path stroke-linecap="butt" transform="matrix(0.75, 0, 0, 0.75, 67.606122, 6.015312)" fill="none" stroke-linejoin="miter" d="M 67.311629 264.224376 L 71.108504 271.193126 " stroke="#da8250" stroke-width="2" stroke-opacity="1" stroke-miterlimit="4"/><path stroke-linecap="butt" transform="matrix(0.75, 0, 0, 0.75, 67.606122, 6.015312)" fill="none" stroke-linejoin="miter" d="M 71.108504 271.193126 C 62.618921 270.536876 56.436629 273.422293 52.561629 279.854585 C 47.441838 288.344168 47.947046 298.281668 52.379338 306.953543 C 57.374129 316.71396 64.155379 325.073335 72.712671 332.021251 C 73.400171 332.573335 73.905379 333.312918 74.238713 334.240001 C 74.728296 335.583751 74.858504 336.99521 74.618921 338.474376 C 72.613713 351.068126 71.473088 363.80771 71.212671 376.693127 C 70.983504 388.281668 73.046004 399.891043 78.655379 409.865002 C 82.577254 416.849377 87.316838 422.937918 92.874129 428.135835 C 93.348088 428.578543 93.530379 429.115002 93.421004 429.750418 C 92.957463 432.536877 93.035588 435.391043 93.650171 438.302502 C 94.921004 444.27646 100.207463 448.80771 105.618921 451.599377 C 115.34288 456.62021 126.259546 457.115002 137.072046 455.812918 C 139.426213 455.52646 142.322046 454.729585 145.764755 453.417085 C 151.572046 451.198335 155.957463 448.625418 161.171005 445.87021 " stroke="#de9c6d" stroke-width="2" stroke-opacity="1" stroke-miterlimit="4"/><path stroke-linecap="butt" transform="matrix(0.75, 0, 0, 0.75, 67.606122, 6.015312)" fill="none" stroke-linejoin="miter" d="M 161.171005 445.87021 L 186.764755 448.510835 " stroke="#deaa8a" stroke-width="2" stroke-opacity="1" stroke-miterlimit="4"/><g clip-path="url(#6d82ddd3ef)"><path stroke-linecap="butt" transform="matrix(0.75, 0, 0, 0.75, 67.606122, 6.015312)" fill="none" stroke-linejoin="miter" d="M 186.764755 448.510835 C 188.072046 450.672293 189.473088 452.724377 190.973088 454.661877 C 191.947046 455.922293 192.702255 457.12021 193.243921 458.260835 C 195.983505 463.990002 202.025171 467.83896 208.077255 469.448335 C 221.99913 473.146252 235.884546 472.380627 249.733505 467.15146 C 253.634546 465.68271 257.483505 464.318127 261.285588 462.510835 C 263.421005 461.49521 265.212671 459.750418 267.223088 458.510835 C 268.009546 458.021252 268.868921 457.729585 269.790796 457.635835 C 274.316838 457.177502 278.775171 456.797293 283.139755 455.823335 C 301.06163 451.802502 315.348088 438.859793 323.608505 422.510835 C 323.926213 421.885835 324.269963 421.266043 324.639755 420.656668 C 325.040797 419.990002 325.394963 419.359793 325.702255 418.766043 " stroke="#de9c6d" stroke-width="2" stroke-opacity="1" stroke-miterlimit="4"/></g><path stroke-linecap="butt" transform="matrix(0.75, 0, 0, 0.75, 67.606122, 6.015312)" fill="none" stroke-linejoin="miter" d="M 325.702255 418.766043 L 332.316838 417.02646 " stroke="#da8250" stroke-width="2" stroke-opacity="1" stroke-miterlimit="4"/><g clip-path="url(#1afbb4d47e)"><path stroke-linecap="butt" transform="matrix(0.75, 0, 0, 0.75, 67.606122, 6.015312)" fill="none" stroke-linejoin="miter" d="M 332.316838 417.02646 C 340.644963 416.531668 348.072047 414.599377 355.676213 410.990002 C 359.572047 409.135835 362.290797 407.729585 363.827255 406.766043 C 366.853297 404.880627 370.473088 402.271252 374.68663 398.927502 C 379.634547 395.005627 382.400172 391.08896 385.952255 386.292085 C 392.082463 378.021252 396.973088 369.354585 400.806422 359.547293 C 402.447047 355.37021 404.160588 349.719168 405.941838 342.599376 C 408.941838 330.656668 412.941838 303.349376 395.191838 300.417085 C 385.06163 298.740001 376.634547 308.359793 373.514755 316.698335 C 372.12413 320.411876 370.421005 325.786876 368.40538 332.818126 C 367.629338 335.52646 365.93663 337.948335 364.926213 340.656668 C 362.754338 346.479585 359.613713 351.80771 355.493922 356.635835 C 353.368922 359.135835 350.712672 361.30771 348.316838 363.573335 C 347.759547 364.099376 346.31163 364.927501 343.96788 366.05771 " stroke="#de9c6d" stroke-width="2" stroke-opacity="1" stroke-miterlimit="4"/></g><path stroke-linecap="butt" transform="matrix(0.75, 0, 0, 0.75, 67.606122, 6.015312)" fill="none" stroke-linejoin="miter" d="M 343.96788 366.05771 C 341.462672 363.875418 339.212672 361.344168 337.21788 358.458751 " stroke="#da8250" stroke-width="2" stroke-opacity="1" stroke-miterlimit="4"/><path stroke-linecap="butt" transform="matrix(0.75, 0, 0, 0.75, 67.606122, 6.015312)" fill="none" stroke-linejoin="miter" d="M 337.21788 358.458751 C 336.827255 356.094168 336.525172 353.677501 336.31163 351.203543 C 334.93663 334.937918 330.90538 319.458751 324.21788 304.771251 C 321.816838 299.510835 318.837672 293.859793 315.275172 287.812918 C 313.738713 285.198335 312.618922 282.760835 311.915797 280.490001 C 311.415797 278.885835 311.973088 277.708751 313.577255 276.96396 C 324.306422 271.979585 334.34288 265.828543 343.077255 257.844168 C 349.598088 251.875418 354.322047 244.479585 358.671005 236.755626 C 360.337672 233.792085 361.551213 230.792085 362.306422 227.750418 C 362.441838 227.208751 362.233505 226.880626 361.691838 226.760835 C 355.978297 225.505626 350.275172 224.172293 344.577255 222.766043 C 337.863713 221.109793 339.556422 212.96396 346.525172 214.005626 C 352.447047 214.896251 358.233505 216.05771 363.889755 217.500418 C 364.046005 217.542085 364.207463 217.552501 364.368922 217.52646 C 364.53038 217.500418 364.68663 217.448335 364.827255 217.359793 C 364.96788 217.27646 365.082463 217.161876 365.181422 217.031668 C 365.275172 216.896251 365.34288 216.74521 365.379338 216.583751 C 366.384547 212.062918 366.993922 207.505626 367.202255 202.911876 C 367.212672 202.62021 367.113713 202.375418 366.910588 202.167085 C 366.702255 201.96396 366.452255 201.865001 366.160588 201.880626 C 356.525172 202.359793 347.202255 203.21396 338.202255 204.443126 C 335.207463 204.854585 331.59288 203.797293 331.389755 200.292085 C 331.243922 197.802501 333.082463 196.30771 335.290797 195.885835 C 345.483505 193.93271 355.769963 192.802501 366.139755 192.490001 C 366.394963 192.479585 366.618922 192.391043 366.81163 192.224376 C 367.004338 192.052501 367.12413 191.83896 367.165797 191.58896 C 367.37413 190.302501 367.37413 189.000418 367.171005 187.687918 C 365.962672 179.854585 364.24913 172.588959 362.03038 165.880626 C 359.009547 156.745209 355.962672 148.302501 352.889755 140.562918 C 352.139755 138.677501 352.077255 136.766043 352.603297 134.797293 C 354.431422 127.880626 355.99913 120.745209 357.31163 113.385834 C 360.639755 94.656668 361.035588 75.844168 358.488713 56.943126 C 357.290797 48.052501 355.176213 39.698334 352.144963 31.885834 C 349.098088 24.047293 344.150172 20.307709 335.394963 21.734793 C 320.275172 24.193126 305.629338 29.359793 291.457463 36.557709 C 286.785588 38.927501 282.21788 41.396251 277.74913 43.958751 C 266.931421 50.151459 257.18663 57.000418 248.514755 64.500418 C 247.691838 65.213959 246.509546 65.083751 245.514755 64.927501 C 226.796005 61.917084 208.431421 59.979584 190.415796 59.109793 C 182.540796 58.734793 172.90538 58.974376 161.504338 59.823334 C 159.337671 59.984793 157.962671 59.698334 156.389755 58.349376 C 149.457463 52.406668 142.96788 46.135834 135.525171 40.802501 C 126.389755 34.245209 117.322046 28.229584 107.202254 23.349376 C 100.561629 20.141043 93.874129 17.323334 87.144963 14.896251 C 79.217879 12.031668 68.915796 9.453543 62.228296 15.536876 C 60.306421 17.286876 58.483504 20.219168 56.754338 24.333751 C 55.441838 27.463959 54.186629 30.724376 52.988713 34.104584 C 43.535588 60.797293 39.967879 87.786876 42.275171 115.073334 C 42.415796 116.734793 42.629338 118.401459 42.921004 120.083751 C 43.306421 122.323334 43.019963 124.276459 42.046004 125.948334 C 39.415796 130.474376 36.947046 134.891043 34.650171 139.187918 C 29.316838 149.156668 25.280379 159.531668 22.535588 170.312918 C 22.160588 171.786876 21.889754 173.281668 21.733504 174.786876 C 21.702254 175.062918 21.822046 175.208751 22.092879 175.229584 C 26.379338 175.641043 31.046004 176.219168 36.103296 176.958751 C 38.707463 177.33896 42.728296 178.115001 43.233504 181.130626 C 44.087671 186.146251 40.322046 187.219168 36.379338 186.74521 C 30.905379 186.078543 25.759546 185.65146 20.941838 185.469168 C 20.806421 185.46396 20.681421 185.505626 20.582463 185.604585 C 20.483504 185.703543 20.431421 185.818126 20.431421 185.958751 C 20.415796 190.078543 20.608504 194.474376 21.004338 199.15146 C 21.014754 199.24521 21.056421 199.323335 21.134546 199.375418 C 21.212671 199.43271 21.301213 199.448335 21.394963 199.427501 C 25.483504 198.380626 29.613713 197.521251 33.785588 196.83896 C 35.165796 196.62021 36.332463 196.818126 37.301213 197.43271 C 39.426213 198.781668 39.967879 202.411876 37.728296 204.08896 C 36.863713 204.740001 35.952254 205.208751 34.999129 205.490001 C 31.358504 206.573335 27.598088 207.615001 23.717879 208.625418 C 23.519963 208.672293 23.363713 208.786876 23.259546 208.96396 C 23.155379 209.135835 23.124129 209.323335 23.171004 209.52646 C 28.879338 234.344168 46.655379 251.083751 67.311629 264.224376 " stroke="#de9c6d" stroke-width="2" stroke-opacity="1" stroke-miterlimit="4"/><path stroke-linecap="butt" transform="matrix(0.75, 0, 0, 0.75, 67.606122, 6.015312)" fill="none" stroke-linejoin="miter" d="M 337.21788 358.458751 C 337.238713 364.255626 337.368922 370.328543 336.879338 375.80771 C 336.129338 384.125418 334.665797 392.323335 332.478297 400.406668 C 330.790797 406.635835 328.53038 412.755627 325.702255 418.766043 " stroke="#fbb170" stroke-width="2" stroke-opacity="1" stroke-miterlimit="4"/><path stroke-linecap="butt" transform="matrix(0.75, 0, 0, 0.75, 67.606122, 6.015312)" fill="none" stroke-linejoin="miter" d="M 186.764755 448.510835 C 189.910588 448.052502 193.051213 448.115002 196.191838 448.703543 C 197.441838 448.937918 198.608505 449.380627 199.691838 450.02646 C 201.144963 450.911877 202.723088 451.453543 204.421005 451.661877 C 208.926213 452.208752 213.754338 452.33896 218.90538 452.05771 C 234.238713 451.203543 245.691838 441.193127 255.223088 429.141043 C 262.801213 419.568127 266.769963 406.641043 267.691838 394.667085 C 268.431421 385.078543 267.790796 375.818126 265.764755 366.880626 C 264.09288 359.52646 260.077255 349.437918 253.921005 345.052501 C 250.99913 342.969168 248.150171 340.781668 245.368921 338.479585 " stroke="#ffd9ab" stroke-width="2" stroke-opacity="1" stroke-miterlimit="4"/><path stroke-linecap="butt" transform="matrix(0.75, 0, 0, 0.75, 67.606122, 6.015312)" fill="none" stroke-linejoin="miter" d="M 245.368921 338.479585 C 246.348088 337.93271 247.014755 337.260835 247.363713 336.46396 C 247.457463 336.24521 247.462671 336.02646 247.379338 335.80771 C 247.025171 334.875418 246.452255 334.08896 245.660588 333.448335 C 234.894963 324.71396 228.019963 309.953543 233.358505 296.490001 C 236.56163 288.422293 242.613713 283.672293 251.514755 282.24521 C 259.889755 280.90146 269.004338 285.161876 274.894963 291.000418 C 276.754338 292.844168 278.572046 294.833751 280.348088 296.974376 C 280.801213 297.516043 281.348088 297.823335 281.993921 297.896251 C 282.202255 297.917085 282.40538 297.896251 282.603296 297.833751 C 282.801213 297.766043 282.973088 297.661876 283.12413 297.521251 C 283.275171 297.380626 283.389755 297.21396 283.46788 297.021251 C 283.546005 296.828543 283.582463 296.625418 283.572046 296.417085 C 283.348088 292.099376 277.493921 286.984793 274.21788 284.500418 " stroke="#fbb170" stroke-width="2" stroke-opacity="1" stroke-miterlimit="4"/><path stroke-linecap="butt" transform="matrix(0.75, 0, 0, 0.75, 67.606122, 6.015312)" fill="none" stroke-linejoin="miter" d="M 274.21788 284.500418 C 278.118921 281.885835 281.087671 278.536876 283.118921 274.443126 C 288.301213 264.031668 289.806421 252.24521 286.957463 240.958751 C 285.384546 234.74521 283.660588 228.521251 280.264755 223.130626 C 278.43663 220.229585 276.452255 217.500418 274.296005 214.937918 C 272.947046 213.328543 271.34288 212.000418 269.488713 210.958751 C 266.691838 209.380626 263.764755 207.891043 260.712671 206.49521 " stroke="#ffd9ab" stroke-width="2" stroke-opacity="1" stroke-miterlimit="4"/><path stroke-linecap="butt" transform="matrix(0.75, 0, 0, 0.75, 67.606122, 6.015312)" fill="none" stroke-linejoin="miter" d="M 260.712671 206.49521 C 266.754338 204.99521 271.296005 201.958751 274.337671 197.391043 C 280.353296 188.33896 278.421005 176.781668 270.723088 169.375418 C 265.176213 164.031668 257.426213 161.891043 250.37413 165.323334 C 247.025171 166.948334 243.87413 169.729584 240.931421 173.667084 " stroke="#de9c6d" stroke-width="2" stroke-opacity="1" stroke-miterlimit="4"/><path stroke-linecap="butt" transform="matrix(0.75, 0, 0, 0.75, 67.606122, 6.015312)" fill="none" stroke-linejoin="miter" d="M 240.931421 173.667084 C 240.65538 168.521251 239.540796 163.937918 237.59288 159.906668 C 235.973088 156.552501 233.884546 153.443126 231.34288 150.573334 C 225.957463 144.500418 219.259546 139.151459 211.24913 134.516043 C 200.723088 128.427501 189.84288 126.135834 177.775171 127.141043 C 172.900171 127.552501 168.40538 128.281668 164.296005 129.338959 C 158.348088 130.859793 152.957463 133.911876 147.634546 137.250418 C 142.78038 140.307709 138.525171 143.667084 134.868921 147.328543 C 131.306421 150.901459 129.233505 155.276459 128.644963 160.448334 " stroke="#ffd9ab" stroke-width="2" stroke-opacity="1" stroke-miterlimit="4"/><path stroke-linecap="butt" transform="matrix(0.75, 0, 0, 0.75, 67.606122, 6.015312)" fill="none" stroke-linejoin="miter" d="M 128.644963 160.448334 C 127.426213 159.427501 126.18663 158.448334 124.931421 157.510834 C 121.65538 155.068126 118.014755 153.943126 114.014755 154.135834 C 110.332463 154.318126 107.004338 155.500418 104.025171 157.677501 C 94.769963 164.469168 91.254338 175.594168 96.098088 186.083751 C 98.379338 191.021251 102.400171 193.833751 107.202254 196.333751 " stroke="#de9c6d" stroke-width="2" stroke-opacity="1" stroke-miterlimit="4"/><path stroke-linecap="butt" transform="matrix(0.75, 0, 0, 0.75, 67.606122, 6.015312)" fill="none" stroke-linejoin="miter" d="M 107.202254 196.333751 C 100.967879 199.542085 95.973088 203.297293 92.212671 207.604585 C 83.853296 217.177501 79.134546 228.74521 78.056421 242.30771 C 77.207463 253.062918 80.009546 262.562918 86.457463 270.802501 C 86.608504 270.99521 86.650171 271.21396 86.582463 271.448335 L 86.342879 272.260835 " stroke="#ffd9ab" stroke-width="2" stroke-opacity="1" stroke-miterlimit="4"/><path stroke-linecap="butt" transform="matrix(0.75, 0, 0, 0.75, 67.606122, 6.015312)" fill="none" stroke-linejoin="miter" d="M 86.342879 272.260835 L 67.311629 264.224376 " stroke="#fbb170" stroke-width="2" stroke-opacity="1" stroke-miterlimit="4"/><path stroke-linecap="butt" transform="matrix(0.75, 0, 0, 0.75, 67.606122, 6.015312)" fill="none" stroke-linejoin="miter" d="M 240.931421 173.667084 C 238.665796 177.302501 237.275171 181.55771 236.759546 186.437918 C 236.316838 190.687918 237.228296 194.427501 239.493921 197.656668 C 244.493921 204.80771 251.566838 207.750418 260.712671 206.49521 " stroke="#deaa8a" stroke-width="2" stroke-opacity="1" stroke-miterlimit="4"/><path stroke-linecap="butt" transform="matrix(0.75, 0, 0, 0.75, 67.606122, 6.015312)" fill="none" stroke-linejoin="miter" d="M 274.21788 284.500418 C 268.28038 280.167085 261.28038 277.375418 253.801213 277.635835 C 243.014755 278.010835 235.129338 282.911876 230.139755 292.344168 C 229.082463 294.344168 228.332463 296.385835 227.889755 298.469168 C 225.629338 309.21396 227.68663 319.000418 234.066838 327.833751 C 236.447046 331.141043 239.035588 333.984793 241.822046 336.365001 C 242.754338 337.161876 243.93663 337.865001 245.368921 338.479585 " stroke="#fbbf8e" stroke-width="2" stroke-opacity="1" stroke-miterlimit="4"/><path stroke-linecap="butt" transform="matrix(0.75, 0, 0, 0.75, 67.606122, 6.015312)" fill="none" stroke-linejoin="miter" d="M 161.171005 445.87021 C 156.884546 445.047293 152.644963 444.479585 148.447046 444.161877 C 142.853296 443.74521 139.202255 443.40146 137.488713 443.135835 C 126.056421 441.375418 114.952255 438.375418 104.171004 434.15146 C 102.077254 433.328543 99.525171 431.802502 96.530379 429.583752 C 95.082463 428.510835 93.858504 427.250418 92.853296 425.797293 C 90.879338 422.93271 88.947046 420.083752 87.061629 417.24521 C 82.249129 409.990002 78.712671 401.922293 76.462671 393.042085 C 74.733504 386.224377 74.738713 378.93271 75.452254 372.031668 C 76.228296 364.484793 77.374129 357.302501 78.889754 350.484793 C 80.493921 343.255626 82.618921 335.979585 85.264754 328.65146 C 88.421004 319.948335 91.092879 311.078543 93.853296 302.161876 C 96.108504 294.891043 97.363713 288.531668 97.618921 283.083751 " stroke="#ffd9ab" stroke-width="2" stroke-opacity="1" stroke-miterlimit="4"/><path stroke-linecap="butt" transform="matrix(0.75, 0, 0, 0.75, 67.606122, 6.015312)" fill="none" stroke-linejoin="miter" d="M 97.618921 283.083751 C 97.644963 282.437918 97.639754 281.833751 97.603296 281.271251 C 97.478296 279.43271 95.655379 277.83896 94.207463 276.917085 C 91.639754 275.281668 89.014754 273.729585 86.342879 272.260835 " stroke="#fbbf8e" stroke-width="2" stroke-opacity="1" stroke-miterlimit="4"/><path stroke-linecap="butt" transform="matrix(0.75, 0, 0, 0.75, 67.606122, 6.015312)" fill="none" stroke-linejoin="miter" d="M 107.202254 196.333751 C 109.728296 196.844168 111.478296 197.156668 112.447046 197.27646 C 120.03038 198.219168 127.004338 194.135835 131.473088 188.161876 C 133.81163 185.036876 134.884546 181.167085 134.68663 176.55771 C 134.426213 170.198334 132.410588 164.828543 128.644963 160.448334 " stroke="#deaa8a" stroke-width="2" stroke-opacity="1" stroke-miterlimit="4"/><path stroke-linecap="butt" transform="matrix(0.75, 0, 0, 0.75, 67.606122, 6.015312)" fill="none" stroke-linejoin="miter" d="M 97.618921 283.083751 C 96.379338 283.68271 95.223088 283.55771 94.144963 282.703543 C 88.280379 278.05771 80.988713 273.90146 73.697046 272.078543 C 72.629338 271.812918 71.764754 271.516043 71.108504 271.193126 " stroke="#fbb170" stroke-width="2" stroke-opacity="1" stroke-miterlimit="4"/><path stroke-linecap="butt" transform="matrix(0.75, 0, 0, 0.75, 67.606122, 6.015312)" fill="none" stroke-linejoin="miter" d="M 332.316838 417.02646 C 333.457463 413.99521 334.275172 410.885835 335.40538 407.849377 C 336.24913 405.578543 336.99913 403.036877 337.65538 400.224377 C 338.87413 394.958752 339.827255 390.104585 340.519963 385.672293 C 341.400172 380.042085 341.525172 373.984793 341.90538 368.224376 C 341.915797 368.02646 341.99913 367.859793 342.144963 367.729585 L 343.96788 366.05771 " stroke="#fbb170" stroke-width="2" stroke-opacity="1" stroke-miterlimit="4"/><path stroke-linecap="butt" transform="matrix(0.75, 0, 0, 0.75, 67.606122, 6.015312)" fill="none" stroke-linejoin="miter" d="M 76.077254 92.740001 L 77.952254 92.995209 C 78.082463 93.010834 78.129338 92.963959 78.087671 92.838959 C 78.061629 92.760834 78.056421 92.682709 78.056421 92.604584 C 78.082463 92.344168 78.207463 92.146251 78.431421 92.016043 C 79.243921 91.552501 80.108504 91.182709 81.019963 90.917084 C 81.858504 90.667084 82.676213 90.286876 83.473088 89.786876 C 84.290796 89.271251 85.092879 88.745209 85.889754 88.213959 C 86.254338 87.969168 86.618921 87.719168 86.978296 87.448334 C 89.337671 85.698334 92.030379 84.172293 95.046004 82.875418 C 95.728296 82.578543 96.483504 82.370209 97.306421 82.250418 C 98.009546 82.151459 98.697046 81.896251 99.358504 81.490001 C 101.353296 80.271251 103.400171 79.141043 105.499129 78.099376 C 107.275171 77.224376 108.988713 76.323334 110.639755 75.406668 C 112.358505 74.453543 114.09288 73.594168 115.84288 72.828543 C 116.072046 72.724376 116.259546 72.568126 116.40538 72.359793 C 116.733505 71.891043 117.139755 71.510834 117.62413 71.219168 C 117.858505 71.078543 117.962671 70.875418 117.941838 70.609793 C 117.90538 70.083751 117.816838 69.594168 117.665796 69.130626 C 117.665796 69.125418 117.551213 68.911876 117.322046 68.479584 C 117.191838 68.250418 117.144963 67.984793 117.181421 67.682709 C 117.202255 67.510834 117.150171 67.365001 117.03038 67.240001 C 116.806421 67.016043 116.775171 66.661876 116.93663 66.187918 " stroke="#ffcda4" stroke-width="2" stroke-opacity="1" stroke-miterlimit="4"/><path stroke-linecap="butt" transform="matrix(0.75, 0, 0, 0.75, 67.606122, 6.015312)" fill="none" stroke-linejoin="miter" d="M 116.93663 66.187918 C 117.68663 66.281668 118.368921 65.917084 118.337671 65.104584 C 118.223088 61.807709 116.473088 58.875418 114.358505 56.219168 C 106.212671 45.948334 96.306421 37.568126 84.504338 32.630626 C 78.639754 30.177501 70.405379 29.005626 66.004338 34.901459 C 64.473088 36.963959 63.118921 39.135834 61.947046 41.417084 C 54.202254 56.453543 50.983504 73.437918 51.014754 90.505626 C 51.025171 94.417084 51.327254 98.338959 51.921004 102.276459 C 52.624129 106.849376 54.118921 111.797293 59.769963 107.443126 C 64.296004 103.948334 68.811629 100.307709 73.311629 96.526459 C 74.848088 95.229584 75.769963 93.963959 76.077254 92.740001 " stroke="#fbb170" stroke-width="2" stroke-opacity="1" stroke-miterlimit="4"/><path stroke-linecap="butt" transform="matrix(0.75, 0, 0, 0.75, 67.606122, 6.015312)" fill="none" stroke-linejoin="miter" d="M 116.93663 66.187918 C 116.191838 65.630626 115.546005 64.953543 115.004338 64.151459 C 107.306421 52.672293 96.806421 42.417084 84.129338 36.635834 C 79.072046 34.328543 72.077254 32.755626 68.275171 38.000418 C 66.525171 40.396251 65.014754 42.990001 63.733504 45.771251 C 56.874129 60.646251 53.733504 76.776459 54.301213 94.151459 C 54.410588 97.495209 54.921004 100.891043 55.832463 104.338959 C 55.874129 104.490001 55.947046 104.620209 56.051213 104.729584 C 56.160588 104.844168 56.285588 104.922293 56.436629 104.969168 C 56.582463 105.010834 56.733504 105.016043 56.884546 104.984793 C 57.035588 104.953543 57.171004 104.885834 57.285588 104.781668 C 61.983504 100.672293 66.644963 97.068126 71.275171 93.979584 C 72.415796 93.224376 74.785588 91.656668 76.077254 92.740001 " stroke="#fbb387" stroke-width="2" stroke-opacity="1" stroke-miterlimit="4"/><path stroke-linecap="butt" transform="matrix(0.75, 0, 0, 0.75, 67.606122, 6.015312)" fill="none" stroke-linejoin="miter" d="M 290.618921 69.312918 C 290.363713 69.995209 290.004338 70.677501 289.535588 71.365001 C 289.014755 72.120209 288.681421 72.818126 288.53038 73.458751 C 287.884546 76.219168 288.608505 78.625418 290.707463 80.672293 C 291.546005 81.490001 292.410588 82.260834 293.301213 82.979584 C 293.478296 83.120209 293.676213 83.198334 293.894963 83.208751 C 294.519963 83.229584 295.019963 83.505626 295.400171 84.026459 C 295.546005 84.234793 295.74913 84.365001 296.004338 84.422293 C 296.426213 84.521251 296.74913 84.807709 296.957463 85.271251 C 297.051213 85.474376 297.202255 85.599376 297.410588 85.661876 C 298.019963 85.838959 298.56163 86.177501 299.040796 86.687918 C 299.150171 86.807709 299.290796 86.880626 299.452255 86.906668 C 300.025171 86.995209 300.514755 87.250418 300.93663 87.672293 C 301.233505 87.969168 301.551213 88.234793 301.894963 88.479584 C 302.879338 89.187918 303.785588 90.036876 304.608505 91.021251 C 304.759546 91.198334 304.941838 91.323334 305.165796 91.391043 C 305.441838 91.484793 305.671005 91.646251 305.84288 91.870209 C 306.462671 92.677501 307.21788 93.219168 308.103296 93.484793 C 308.238713 93.521251 308.34288 93.599376 308.421005 93.708751 C 309.046005 94.568126 309.816838 95.234793 310.728297 95.719168 C 313.051213 96.937918 315.598088 98.771251 318.37413 101.213959 C 318.43663 101.266043 318.46788 101.250418 318.473088 101.172293 C 318.478297 101.104584 318.462672 101.036876 318.421005 100.979584 C 318.285588 100.729584 318.327255 100.693126 318.546005 100.875418 C 320.493922 102.479584 322.650172 103.516043 325.014755 103.984793 " stroke="#ffcda4" stroke-width="2" stroke-opacity="1" stroke-miterlimit="4"/><path stroke-linecap="butt" transform="matrix(0.75, 0, 0, 0.75, 67.606122, 6.015312)" fill="none" stroke-linejoin="miter" d="M 325.014755 103.984793 C 324.207463 105.635834 324.348088 107.172293 325.43663 108.594168 C 326.650172 110.172293 328.087672 111.802501 329.759547 113.474376 C 332.775172 116.490001 335.629338 119.625418 338.353297 122.870209 C 341.098088 126.135834 343.81163 123.391043 344.910588 120.588959 C 351.051213 105.016043 351.71788 86.984793 350.379338 69.917084 C 350.014755 65.245209 349.327255 60.625418 348.316838 56.062918 C 346.660588 48.562918 342.853297 39.672293 333.822047 39.302501 C 327.84288 39.062918 321.34288 41.328543 315.921005 44.115001 C 308.040796 48.167084 301.160588 53.141043 295.28038 59.036876 C 293.301213 61.026459 291.769963 62.948334 290.691838 64.802501 C 289.775171 66.380626 289.74913 67.885834 290.618921 69.312918 " stroke="#fbb170" stroke-width="2" stroke-opacity="1" stroke-miterlimit="4"/><path stroke-linecap="butt" transform="matrix(0.75, 0, 0, 0.75, 67.606122, 6.015312)" fill="none" stroke-linejoin="miter" d="M 325.014755 103.984793 C 326.394963 104.411876 327.671005 105.213959 328.848088 106.391043 C 333.014755 110.578543 336.785588 114.677501 340.15538 118.693126 C 340.223088 118.771251 340.301213 118.823334 340.394963 118.859793 C 340.488713 118.896251 340.587672 118.901459 340.68663 118.885834 C 340.785588 118.870209 340.87413 118.828543 340.952255 118.766043 C 341.03038 118.698334 341.09288 118.620209 341.129338 118.526459 C 343.676213 111.885834 345.31163 104.979584 346.025172 97.812918 C 347.31163 84.974376 346.78038 72.281668 344.426213 59.729584 C 343.806422 56.437918 342.941838 53.312918 341.827255 50.349376 C 340.03038 45.588959 336.71788 43.380626 331.889755 43.724376 C 328.832463 43.953543 325.81163 44.661876 322.832463 45.854584 C 311.019963 50.583751 301.81163 58.161876 293.488713 67.891043 C 292.816838 68.672293 291.858505 69.146251 290.618921 69.312918 " stroke="#fbb387" stroke-width="2" stroke-opacity="1" stroke-miterlimit="4"/><path stroke-linecap="butt" transform="matrix(0.75, 0, 0, 0.75, 67.606122, 6.015312)" fill="none" stroke-linejoin="miter" d="M 66.243921 172.375418 C 66.092879 172.286876 65.931421 172.260834 65.754338 172.286876 C 64.535588 172.484793 63.671004 173.182709 63.165796 174.370209 C 59.780379 182.271251 56.691838 190.031668 53.884546 197.646251 C 53.546004 198.578543 53.374129 199.750418 54.275171 200.458751 C 56.874129 202.474376 58.249129 199.687918 59.014754 197.750418 C 62.176213 189.74521 64.936629 182.255626 67.301213 175.271251 C 67.488713 174.729584 67.478296 174.187918 67.280379 173.646251 C 67.082463 173.104584 66.738713 172.677501 66.243921 172.375418 " stroke="#fbb170" stroke-width="2" stroke-opacity="1" stroke-miterlimit="4"/><path stroke-linecap="butt" transform="matrix(0.75, 0, 0, 0.75, 67.606122, 6.015312)" fill="none" stroke-linejoin="miter" d="M 77.910588 174.448334 C 77.853296 174.255626 77.764754 174.083751 77.634546 173.927501 C 77.509546 173.771251 77.358504 173.646251 77.186629 173.547293 C 77.009546 173.453543 76.822046 173.391043 76.624129 173.365001 C 76.426213 173.338959 76.228296 173.349376 76.035588 173.401459 C 74.889754 173.708751 74.019963 175.286876 73.603296 176.312918 C 70.421004 184.12021 67.452254 192.318126 64.697046 200.90146 C 64.587671 201.250418 64.566838 201.599376 64.639754 201.953543 C 65.223088 204.708751 66.473088 205.135835 68.389754 203.240001 C 68.577254 203.052501 68.717879 202.83896 68.811629 202.594168 C 71.671004 195.271251 74.702254 186.71396 77.900171 176.922293 C 78.165796 176.109793 78.171004 175.286876 77.910588 174.448334 " stroke="#fbb170" stroke-width="2" stroke-opacity="1" stroke-miterlimit="4"/><path stroke-linecap="butt" transform="matrix(0.75, 0, 0, 0.75, 67.606122, 6.015312)" fill="none" stroke-linejoin="miter" d="M 89.014754 179.771251 C 89.118921 179.484793 89.160588 179.193126 89.144963 178.885835 C 89.129338 178.583751 89.056421 178.292085 88.931421 178.016043 C 88.801213 177.74521 88.618921 177.505626 88.394963 177.297293 C 88.171004 177.094168 87.915796 176.943126 87.629338 176.83896 L 87.535588 176.80771 C 87.249129 176.703543 86.957463 176.661876 86.650171 176.677501 C 86.348088 176.687918 86.056421 176.760835 85.785588 176.891043 C 85.509546 177.021251 85.269963 177.198335 85.066838 177.427501 C 84.858504 177.65146 84.707463 177.906668 84.603296 178.193126 L 76.764754 200.08896 C 76.660588 200.375418 76.618921 200.672293 76.634546 200.974376 C 76.644963 201.281668 76.717879 201.568126 76.848088 201.844168 C 76.978296 202.12021 77.155379 202.359793 77.384546 202.562918 C 77.608504 202.766043 77.863713 202.922293 78.150171 203.021251 L 78.243921 203.05771 C 78.525171 203.156668 78.822046 203.203543 79.124129 203.187918 C 79.431421 203.172293 79.717879 203.099376 79.993921 202.969168 C 80.269963 202.83896 80.509546 202.661876 80.712671 202.437918 C 80.915796 202.21396 81.072046 201.953543 81.176213 201.672293 L 89.014754 179.771251 " stroke="#fbb170" stroke-width="2" stroke-opacity="1" stroke-miterlimit="4"/><path stroke-linecap="butt" transform="matrix(0.75, 0, 0, 0.75, 67.606122, 6.015312)" fill="none" stroke-linejoin="miter" d="M 289.743921 218.510835 C 293.478296 209.875418 297.144963 200.990001 300.702255 192.078543 C 301.191838 190.844168 301.363713 189.698335 301.212671 188.635835 C 301.046005 187.427501 299.743921 186.90146 298.733505 187.573335 C 297.801213 188.203543 297.139755 188.958751 296.743921 189.83896 C 295.197046 193.312918 292.337671 199.96396 288.171005 209.802501 C 286.947046 212.687918 286.004338 215.37021 285.337671 217.849376 C 284.988713 219.141043 285.379338 220.250418 286.660588 220.68271 C 288.129338 221.172293 289.254338 219.65146 289.743921 218.510835 " stroke="#fbb170" stroke-width="2" stroke-opacity="1" stroke-miterlimit="4"/><path stroke-linecap="butt" transform="matrix(0.75, 0, 0, 0.75, 67.606122, 6.015312)" fill="none" stroke-linejoin="miter" d="M 289.09288 190.990001 C 289.15538 190.604585 289.09288 190.240001 288.910588 189.891043 C 288.723088 189.547293 288.452255 189.297293 288.09288 189.141043 C 286.066838 188.240001 284.65538 190.109793 283.99913 191.740001 C 280.99913 199.083751 278.316838 206.031668 275.952255 212.58896 C 275.394963 214.146251 275.702255 215.354585 276.87413 216.219168 C 277.035588 216.33896 277.21788 216.40146 277.421005 216.411876 C 278.639755 216.448335 279.43663 215.990001 279.822046 215.042085 C 282.035588 209.58896 284.400171 203.698335 286.926213 197.37021 C 287.769963 195.240001 288.71788 193.24521 289.09288 190.990001 " stroke="#fbb170" stroke-width="2" stroke-opacity="1" stroke-miterlimit="4"/><path stroke-linecap="butt" transform="matrix(0.75, 0, 0, 0.75, 67.606122, 6.015312)" fill="none" stroke-linejoin="miter" d="M 300.353296 209.875418 C 299.259546 212.786876 298.59288 215.052501 298.353296 216.667085 C 298.202255 217.693126 298.556421 218.536876 299.426213 219.193126 C 299.525171 219.271251 299.634546 219.323335 299.754338 219.349376 C 301.191838 219.734793 302.165796 219.229585 302.68663 217.833751 L 311.348088 194.250418 C 311.431422 194.021251 311.462672 193.792085 311.43663 193.55771 C 311.181422 190.656668 309.87413 190.411876 307.514755 192.823335 C 307.353296 192.984793 307.223088 193.167085 307.12413 193.37021 C 305.316838 197.193126 303.056421 202.698335 300.353296 209.875418 " stroke="#fbb170" stroke-width="2" stroke-opacity="1" stroke-miterlimit="4"/><path stroke-linecap="butt" transform="matrix(0.75, 0, 0, 0.75, 67.606122, 6.015312)" fill="none" stroke-linejoin="miter" d="M 181.34288 198.385835 C 184.947046 203.406668 191.582463 206.896251 197.957463 205.823335 C 202.801213 205.010835 207.040796 201.229585 207.228296 196.198335 C 207.28038 195.099376 206.81163 193.583751 205.629338 193.255626 C 203.59288 192.703543 202.931421 194.953543 202.46788 196.411876 C 201.603296 199.156668 198.441838 200.849376 195.801213 200.906668 C 190.93663 201.021251 184.962671 197.71396 184.139755 192.667085 C 183.660588 189.77646 179.426213 189.141043 178.171005 191.943126 C 176.009546 196.750418 171.12413 199.349376 166.040796 198.578543 C 163.43663 198.187918 160.863713 196.349376 160.540796 193.599376 C 160.415796 192.531668 160.551213 190.672293 159.723088 189.891043 C 157.921005 188.177501 155.962671 190.099376 155.691838 191.990001 C 154.93663 197.24521 158.426213 201.40146 163.171005 203.115001 C 169.556421 205.406668 175.910588 203.323335 180.49913 198.33896 C 180.613713 198.208751 180.759546 198.15146 180.931421 198.161876 C 181.103296 198.172293 181.243921 198.24521 181.34288 198.385835 " stroke="#deaa8a" stroke-width="2" stroke-opacity="1" stroke-miterlimit="4"/><g clip-path="url(#0fd6120ddf)"><path fill="#241843" d="M 327.855469 268.59375 C 327.875 268.851562 327.964844 268.878906 328.125 268.671875 C 331.246094 264.609375 333.578125 260.550781 335.117188 256.496094 C 336.296875 253.378906 337.390625 249.878906 338.394531 245.996094 C 341.121094 235.476562 347.558594 225.316406 358.890625 223.429688 C 369.121094 221.722656 377.785156 227.539062 380.691406 237.3125 C 382.0625 241.929688 382.511719 246.890625 382.039062 252.191406 C 380.746094 266.660156 376.40625 280.070312 369.027344 292.417969 C 367.691406 294.660156 366.113281 297.039062 364.296875 299.554688 C 362.417969 302.164062 360.683594 304.332031 359.089844 306.070312 C 348.0625 318.085938 334.421875 325.074219 318.164062 327.03125 C 317.707031 327.089844 317.195312 327.339844 316.964844 327.753906 C 307.71875 344.714844 291.84375 355.984375 272.273438 357.113281 C 271.363281 357.167969 270.492188 357.597656 269.730469 358.058594 C 264.386719 361.3125 259.058594 363.761719 253.738281 365.410156 C 245.691406 367.898438 237.019531 368.527344 227.726562 367.296875 C 219.75 366.238281 212.574219 363.386719 207.472656 357.222656 C 205.984375 355.425781 204.875 353.171875 204.140625 350.460938 C 204.09375 350.285156 204 350.140625 203.863281 350.023438 C 203.722656 349.910156 203.566406 349.84375 203.386719 349.832031 C 199.222656 349.503906 195.09375 349.089844 191 348.582031 C 190.503906 348.523438 190.050781 348.625 189.636719 348.882812 C 179.117188 355.503906 167.402344 357.816406 154.496094 355.828125 C 143.03125 354.066406 130.296875 346.011719 129.417969 333.234375 C 129.355469 332.242188 129.246094 331.261719 129.097656 330.292969 C 129.074219 330.136719 129.007812 330 128.898438 329.886719 C 127.175781 328.015625 125.691406 326.28125 124.441406 324.683594 C 117.90625 316.320312 114.214844 306.875 113.375 296.339844 C 113.144531 293.464844 113.046875 289.992188 113.078125 285.917969 C 113.148438 277.34375 113.921875 268.882812 115.402344 260.53125 C 115.476562 260.097656 115.351562 259.734375 115.019531 259.4375 C 109.1875 254.246094 104.398438 248.335938 100.660156 241.703125 C 94.1875 230.222656 94.214844 215.476562 104.90625 206.738281 C 105.019531 206.644531 105.109375 206.53125 105.171875 206.398438 C 105.234375 206.261719 105.265625 206.121094 105.265625 205.976562 C 105.265625 205.828125 105.234375 205.6875 105.167969 205.554688 C 105.105469 205.421875 105.015625 205.308594 104.902344 205.214844 C 100.289062 201.503906 96.101562 197.5 92.21875 193.269531 C 85.039062 185.449219 80.121094 176.265625 77.460938 165.714844 C 77.375 165.371094 77.15625 165.230469 76.804688 165.289062 C 74.613281 165.679688 73.042969 165.203125 72.101562 163.855469 C 70.980469 162.25 71.269531 159.625 72.839844 158.476562 C 73.546875 157.957031 74.460938 157.660156 75.273438 157.328125 C 75.453125 157.253906 75.53125 157.121094 75.507812 156.929688 C 75.011719 153.144531 74.886719 149.429688 75.128906 145.785156 C 75.132812 145.695312 75.105469 145.621094 75.042969 145.554688 C 74.980469 145.488281 74.90625 145.457031 74.816406 145.460938 C 73.824219 145.480469 72.8125 145.410156 71.773438 145.246094 C 68.488281 144.722656 67.242188 140.761719 69.554688 138.515625 C 70.878906 137.230469 73.71875 137.117188 75.542969 136.988281 C 75.796875 136.96875 75.945312 136.835938 75.984375 136.585938 C 78.203125 123.164062 84.03125 110.691406 91.164062 98.75 C 91.34375 98.445312 91.421875 98.121094 91.398438 97.777344 C 90.480469 85.421875 90.691406 73.59375 92.027344 62.292969 C 93.671875 48.34375 97.101562 34.746094 102.316406 21.511719 C 103.507812 18.480469 105.199219 15.058594 107.378906 12.683594 C 113.617188 5.910156 123.371094 5.871094 131.917969 8.613281 C 143.972656 12.472656 154.96875 17.609375 164.90625 24.015625 C 173.148438 29.332031 180.964844 35.433594 188.351562 42.328125 C 188.855469 42.800781 189.457031 43.003906 190.152344 42.941406 C 198.125 42.226562 205.996094 42.101562 213.761719 42.5625 C 221.777344 43.03125 229.222656 43.695312 236.085938 44.546875 C 241.199219 45.179688 246.03125 45.785156 250.578125 46.363281 C 250.925781 46.40625 251.238281 46.320312 251.511719 46.101562 C 260.332031 39.023438 270.214844 32.914062 280.429688 27.578125 C 290.316406 22.414062 300.902344 18.308594 311.839844 15.902344 C 315.152344 15.175781 318.425781 14.824219 321.664062 14.851562 C 336.121094 14.972656 339.941406 27.441406 342.734375 39.171875 C 343.300781 41.53125 343.738281 43.804688 344.046875 45.988281 C 346.265625 61.617188 346.027344 77.09375 343.332031 92.410156 C 342.441406 97.488281 341.402344 102.320312 340.210938 106.90625 C 340.082031 107.402344 340.125 107.882812 340.335938 108.351562 C 341.8125 111.605469 343.203125 114.792969 344.328125 118.210938 C 346.5625 125.019531 348.3125 131.894531 349.578125 138.835938 C 350.226562 142.414062 350.640625 145.925781 350.8125 149.375 C 350.832031 149.691406 350.992188 149.894531 351.300781 149.976562 C 353.382812 150.539062 354.894531 151.28125 354.832031 153.78125 C 354.792969 155.433594 354.136719 156.574219 352.867188 157.195312 C 352.257812 157.492188 351.566406 157.449219 350.945312 157.714844 C 350.761719 157.792969 350.664062 157.929688 350.652344 158.125 C 350.460938 162.324219 349.992188 166.511719 349.238281 170.691406 C 349.191406 170.960938 349.292969 171.152344 349.546875 171.273438 C 351.660156 172.238281 353.433594 173.054688 353.375 175.792969 C 353.3125 179.007812 350.699219 180.410156 347.664062 179.546875 C 347.15625 179.402344 346.828125 179.582031 346.671875 180.085938 C 343.992188 188.875 339.359375 196.40625 332.765625 202.679688 C 326.25 208.878906 319.21875 214.144531 311.671875 218.472656 C 311.59375 218.519531 311.542969 218.585938 311.519531 218.675781 C 311.5 218.761719 311.511719 218.84375 311.558594 218.921875 C 319.355469 231.261719 324.257812 245.714844 326.964844 260.371094 C 327.46875 263.097656 327.65625 265.859375 327.855469 268.59375 Z M 118.089844 204.183594 L 120.9375 209.410156 C 114.570312 208.917969 109.933594 211.082031 107.027344 215.90625 C 103.1875 222.273438 103.566406 229.726562 106.890625 236.230469 C 110.636719 243.550781 115.722656 249.820312 122.140625 255.03125 C 122.65625 255.445312 123.035156 256 123.285156 256.695312 C 123.652344 257.703125 123.75 258.761719 123.570312 259.871094 C 122.066406 269.316406 121.210938 278.871094 121.015625 288.535156 C 120.84375 297.226562 122.390625 305.933594 126.597656 313.414062 C 129.539062 318.652344 133.09375 323.21875 137.261719 327.117188 C 137.617188 327.449219 137.753906 327.851562 137.671875 328.328125 C 137.324219 330.417969 137.382812 332.558594 137.84375 334.742188 C 138.796875 339.222656 142.761719 342.621094 146.820312 344.714844 C 154.113281 348.480469 162.300781 348.851562 170.410156 347.875 C 172.175781 347.660156 174.347656 347.0625 176.929688 346.078125 C 181.285156 344.414062 184.574219 342.484375 188.484375 340.417969 L 207.679688 342.398438 C 208.660156 344.019531 209.710938 345.558594 210.835938 347.011719 C 211.566406 347.957031 212.132812 348.855469 212.539062 349.710938 C 214.59375 354.007812 219.125 356.894531 223.664062 358.101562 C 234.101562 360.875 244.519531 360.300781 254.90625 356.378906 C 257.832031 355.277344 260.71875 354.253906 263.570312 352.898438 C 265.171875 352.136719 266.515625 350.828125 268.023438 349.898438 C 268.613281 349.53125 269.257812 349.3125 269.949219 349.242188 C 273.34375 348.898438 276.6875 348.613281 279.960938 347.882812 C 293.402344 344.867188 304.117188 335.160156 310.3125 322.898438 C 310.550781 322.429688 310.808594 321.964844 311.085938 321.507812 C 311.386719 321.007812 311.652344 320.535156 311.882812 320.089844 L 316.84375 318.785156 C 323.089844 318.414062 328.660156 316.964844 334.363281 314.257812 C 337.285156 312.867188 339.324219 311.8125 340.476562 311.089844 C 342.746094 309.675781 345.460938 307.71875 348.621094 305.210938 C 352.332031 302.269531 354.40625 299.332031 357.070312 295.734375 C 361.667969 289.53125 365.335938 283.03125 368.210938 275.675781 C 369.441406 272.542969 370.726562 268.304688 372.0625 262.964844 C 374.3125 254.007812 377.3125 233.527344 364 231.328125 C 356.402344 230.070312 350.082031 237.285156 347.742188 243.539062 C 346.699219 246.324219 345.421875 250.355469 343.910156 255.628906 C 343.328125 257.660156 342.058594 259.476562 341.300781 261.507812 C 339.671875 265.875 337.316406 269.871094 334.226562 273.492188 C 332.632812 275.367188 330.640625 276.996094 328.84375 278.695312 C 328.425781 279.089844 327.339844 279.707031 325.582031 280.558594 C 323.703125 278.921875 322.015625 277.023438 320.519531 274.859375 C 320.226562 273.085938 320 271.273438 319.839844 269.417969 C 318.808594 257.21875 315.785156 245.609375 310.769531 234.59375 C 308.96875 230.648438 306.734375 226.410156 304.0625 221.875 C 302.910156 219.914062 302.070312 218.085938 301.542969 216.382812 C 301.167969 215.179688 301.585938 214.296875 302.789062 213.738281 C 310.835938 210 318.363281 205.386719 324.914062 199.398438 C 329.804688 194.921875 333.347656 189.375 336.609375 183.582031 C 337.859375 181.359375 338.769531 179.109375 339.335938 176.828125 C 339.4375 176.421875 339.28125 176.175781 338.875 176.085938 C 334.589844 175.144531 330.3125 174.144531 326.039062 173.089844 C 321.003906 171.847656 322.273438 165.738281 327.5 166.519531 C 331.941406 167.1875 336.28125 168.058594 340.523438 169.140625 C 340.640625 169.171875 340.761719 169.179688 340.882812 169.160156 C 341.003906 169.140625 341.121094 169.101562 341.226562 169.035156 C 341.332031 168.972656 341.417969 168.886719 341.492188 168.789062 C 341.5625 168.6875 341.613281 168.574219 341.640625 168.453125 C 342.394531 165.0625 342.851562 161.644531 343.007812 158.199219 C 343.015625 157.980469 342.941406 157.796875 342.789062 157.640625 C 342.632812 157.488281 342.445312 157.414062 342.226562 157.425781 C 335 157.785156 328.007812 158.425781 321.257812 159.347656 C 319.011719 159.65625 316.300781 158.863281 316.148438 156.234375 C 316.039062 154.367188 317.417969 153.246094 319.074219 152.929688 C 326.71875 151.464844 334.429688 150.617188 342.210938 150.382812 C 342.402344 150.375 342.570312 150.308594 342.714844 150.183594 C 342.859375 150.054688 342.949219 149.894531 342.980469 149.707031 C 343.136719 148.742188 343.136719 147.765625 342.984375 146.78125 C 342.078125 140.90625 340.792969 135.457031 339.128906 130.425781 C 336.863281 123.574219 334.578125 117.242188 332.273438 111.4375 C 331.710938 110.023438 331.664062 108.589844 332.058594 107.113281 C 333.429688 101.925781 334.605469 96.574219 335.589844 91.054688 C 338.085938 77.007812 338.382812 62.898438 336.472656 48.722656 C 335.574219 42.054688 333.988281 35.789062 331.714844 29.929688 C 329.429688 24.050781 325.71875 21.246094 319.152344 22.316406 C 307.8125 24.160156 296.828125 28.035156 286.199219 33.433594 C 282.695312 35.210938 279.269531 37.0625 275.917969 38.984375 C 267.804688 43.628906 260.496094 48.765625 253.992188 54.390625 C 253.375 54.925781 252.488281 54.828125 251.742188 54.710938 C 237.703125 52.453125 223.929688 51 210.417969 50.347656 C 204.511719 50.066406 197.285156 50.246094 188.734375 50.882812 C 187.109375 51.003906 186.078125 50.789062 184.898438 49.777344 C 179.699219 45.320312 174.832031 40.617188 169.25 36.617188 C 162.398438 31.699219 155.597656 27.1875 148.007812 23.527344 C 143.027344 21.121094 138.011719 19.007812 132.964844 17.1875 C 127.019531 15.039062 119.292969 13.105469 114.277344 17.667969 C 112.835938 18.980469 111.46875 21.179688 110.171875 24.265625 C 109.1875 26.613281 108.246094 29.058594 107.347656 31.59375 C 100.257812 51.613281 97.582031 71.855469 99.3125 92.320312 C 99.417969 93.566406 99.578125 94.816406 99.796875 96.078125 C 100.085938 97.757812 99.871094 99.222656 99.140625 100.476562 C 97.167969 103.871094 95.316406 107.183594 93.59375 110.40625 C 89.59375 117.882812 86.566406 125.664062 84.507812 133.75 C 84.226562 134.855469 84.023438 135.976562 83.90625 137.105469 C 83.882812 137.3125 83.972656 137.421875 84.175781 137.4375 C 87.390625 137.746094 90.890625 138.179688 94.683594 138.734375 C 96.636719 139.019531 99.652344 139.601562 100.03125 141.863281 C 100.671875 145.625 97.847656 146.429688 94.890625 146.074219 C 90.785156 145.574219 86.925781 145.253906 83.3125 145.117188 C 83.210938 145.113281 83.117188 145.144531 83.042969 145.21875 C 82.96875 145.292969 82.929688 145.378906 82.929688 145.484375 C 82.917969 148.574219 83.0625 151.871094 83.359375 155.378906 C 83.367188 155.449219 83.398438 155.507812 83.457031 155.546875 C 83.515625 155.589844 83.582031 155.601562 83.652344 155.585938 C 86.71875 154.800781 89.816406 154.15625 92.945312 153.644531 C 93.980469 153.480469 94.855469 153.628906 95.582031 154.085938 C 97.175781 155.101562 97.582031 157.824219 95.902344 159.082031 C 95.253906 159.570312 94.570312 159.921875 93.855469 160.132812 C 91.125 160.945312 88.304688 161.726562 85.394531 162.484375 C 85.246094 162.519531 85.128906 162.605469 85.050781 162.738281 C 84.972656 162.867188 84.949219 163.007812 84.984375 163.160156 C 89.265625 181.773438 102.597656 194.328125 118.089844 204.183594 Z M 118.089844 204.183594 " fill-opacity="1" fill-rule="nonzero"/></g><path fill="#825d56" d="M 320.519531 274.859375 C 320.535156 279.207031 320.632812 283.761719 320.265625 287.871094 C 319.703125 294.109375 318.605469 300.257812 316.964844 306.320312 C 315.699219 310.992188 314.003906 315.582031 311.882812 320.089844 C 311.652344 320.535156 311.386719 321.007812 311.085938 321.507812 C 310.808594 321.964844 310.550781 322.429688 310.3125 322.898438 C 304.117188 335.160156 293.402344 344.867188 279.960938 347.882812 C 276.6875 348.613281 273.34375 348.898438 269.949219 349.242188 C 269.257812 349.3125 268.613281 349.53125 268.023438 349.898438 C 266.515625 350.828125 265.171875 352.136719 263.570312 352.898438 C 260.71875 354.253906 257.832031 355.277344 254.90625 356.378906 C 244.519531 360.300781 234.101562 360.875 223.664062 358.101562 C 219.125 356.894531 214.59375 354.007812 212.539062 349.710938 C 212.132812 348.855469 211.566406 347.957031 210.835938 347.011719 C 209.710938 345.558594 208.660156 344.019531 207.679688 342.398438 C 210.039062 342.054688 212.394531 342.101562 214.75 342.542969 C 215.6875 342.71875 216.5625 343.050781 217.375 343.535156 C 218.464844 344.199219 219.648438 344.605469 220.921875 344.761719 C 224.300781 345.171875 227.921875 345.269531 231.785156 345.058594 C 243.285156 344.417969 251.875 336.910156 259.023438 327.871094 C 264.707031 320.691406 267.683594 310.996094 268.375 302.015625 C 268.929688 294.824219 268.449219 287.878906 266.929688 281.175781 C 265.675781 275.660156 262.664062 268.09375 258.046875 264.804688 C 255.855469 263.242188 253.71875 261.601562 251.632812 259.875 C 252.367188 259.464844 252.867188 258.957031 253.128906 258.363281 C 253.199219 258.199219 253.203125 258.035156 253.140625 257.871094 C 252.875 257.171875 252.445312 256.582031 251.851562 256.101562 C 243.777344 249.550781 238.621094 238.480469 242.625 228.382812 C 245.027344 222.332031 249.566406 218.769531 256.242188 217.699219 C 262.523438 216.691406 269.355469 219.886719 273.777344 224.265625 C 275.171875 225.648438 276.535156 227.140625 277.867188 228.746094 C 278.207031 229.152344 278.617188 229.382812 279.101562 229.4375 C 279.257812 229.453125 279.410156 229.4375 279.558594 229.390625 C 279.707031 229.339844 279.835938 229.261719 279.949219 229.15625 C 280.0625 229.050781 280.148438 228.925781 280.207031 228.78125 C 280.265625 228.636719 280.292969 228.484375 280.285156 228.328125 C 280.117188 225.089844 275.726562 221.253906 273.269531 219.390625 C 276.195312 217.429688 278.421875 214.917969 279.945312 211.847656 C 283.832031 204.039062 284.960938 195.199219 282.824219 186.734375 C 281.644531 182.074219 280.351562 177.40625 277.804688 173.363281 C 276.433594 171.1875 274.945312 169.140625 273.328125 167.21875 C 272.316406 166.011719 271.113281 165.015625 269.722656 164.234375 C 267.625 163.050781 265.429688 161.933594 263.140625 160.886719 C 267.671875 159.761719 271.078125 157.484375 273.359375 154.058594 C 277.871094 147.269531 276.421875 138.601562 270.644531 133.046875 C 266.488281 129.039062 260.675781 127.433594 255.386719 130.007812 C 252.875 131.226562 250.511719 133.3125 248.304688 136.265625 C 248.097656 132.40625 247.261719 128.96875 245.800781 125.945312 C 244.585938 123.429688 243.019531 121.097656 241.113281 118.945312 C 237.074219 114.390625 232.050781 110.378906 226.042969 106.902344 C 218.148438 102.335938 209.988281 100.617188 200.9375 101.371094 C 197.28125 101.679688 193.910156 102.226562 190.828125 103.019531 C 186.367188 104.160156 182.324219 106.449219 178.332031 108.953125 C 174.691406 111.246094 171.5 113.765625 168.757812 116.511719 C 166.085938 119.191406 164.53125 122.472656 164.089844 126.351562 C 163.175781 125.585938 162.246094 124.851562 161.304688 124.148438 C 158.847656 122.316406 156.117188 121.472656 153.117188 121.617188 C 150.355469 121.753906 147.859375 122.640625 145.625 124.273438 C 138.683594 129.367188 136.046875 137.710938 139.679688 145.578125 C 141.390625 149.28125 144.40625 151.390625 148.007812 153.265625 C 143.332031 155.671875 139.585938 158.488281 136.765625 161.71875 C 130.496094 168.898438 126.957031 177.574219 126.148438 187.746094 C 125.511719 195.8125 127.613281 202.9375 132.449219 209.117188 C 132.5625 209.261719 132.59375 209.425781 132.542969 209.601562 L 132.363281 210.210938 L 118.089844 204.183594 C 102.597656 194.328125 89.265625 181.773438 84.984375 163.160156 C 84.949219 163.007812 84.972656 162.867188 85.050781 162.738281 C 85.128906 162.605469 85.246094 162.519531 85.394531 162.484375 C 88.304688 161.726562 91.125 160.945312 93.855469 160.132812 C 94.570312 159.921875 95.253906 159.570312 95.902344 159.082031 C 97.582031 157.824219 97.175781 155.101562 95.582031 154.085938 C 94.855469 153.628906 93.980469 153.480469 92.945312 153.644531 C 89.816406 154.15625 86.71875 154.800781 83.652344 155.585938 C 83.582031 155.601562 83.515625 155.589844 83.457031 155.546875 C 83.398438 155.507812 83.367188 155.449219 83.359375 155.378906 C 83.0625 151.871094 82.917969 148.574219 82.929688 145.484375 C 82.929688 145.378906 82.96875 145.292969 83.042969 145.21875 C 83.117188 145.144531 83.210938 145.113281 83.3125 145.117188 C 86.925781 145.253906 90.785156 145.574219 94.890625 146.074219 C 97.847656 146.429688 100.671875 145.625 100.03125 141.863281 C 99.652344 139.601562 96.636719 139.019531 94.683594 138.734375 C 90.890625 138.179688 87.390625 137.746094 84.175781 137.4375 C 83.972656 137.421875 83.882812 137.3125 83.90625 137.105469 C 84.023438 135.976562 84.226562 134.855469 84.507812 133.75 C 86.566406 125.664062 89.59375 117.882812 93.59375 110.40625 C 95.316406 107.183594 97.167969 103.871094 99.140625 100.476562 C 99.871094 99.222656 100.085938 97.757812 99.796875 96.078125 C 99.578125 94.816406 99.417969 93.566406 99.3125 92.320312 C 97.582031 71.855469 100.257812 51.613281 107.347656 31.59375 C 108.246094 29.058594 109.1875 26.613281 110.171875 24.265625 C 111.46875 21.179688 112.835938 18.980469 114.277344 17.667969 C 119.292969 13.105469 127.019531 15.039062 132.964844 17.1875 C 138.011719 19.007812 143.027344 21.121094 148.007812 23.527344 C 155.597656 27.1875 162.398438 31.699219 169.25 36.617188 C 174.832031 40.617188 179.699219 45.320312 184.898438 49.777344 C 186.078125 50.789062 187.109375 51.003906 188.734375 50.882812 C 197.285156 50.246094 204.511719 50.066406 210.417969 50.347656 C 223.929688 51 237.703125 52.453125 251.742188 54.710938 C 252.488281 54.828125 253.375 54.925781 253.992188 54.390625 C 260.496094 48.765625 267.804688 43.628906 275.917969 38.984375 C 279.269531 37.0625 282.695312 35.210938 286.199219 33.433594 C 296.828125 28.035156 307.8125 24.160156 319.152344 22.316406 C 325.71875 21.246094 329.429688 24.050781 331.714844 29.929688 C 333.988281 35.789062 335.574219 42.054688 336.472656 48.722656 C 338.382812 62.898438 338.085938 77.007812 335.589844 91.054688 C 334.605469 96.574219 333.429688 101.925781 332.058594 107.113281 C 331.664062 108.589844 331.710938 110.023438 332.273438 111.4375 C 334.578125 117.242188 336.863281 123.574219 339.128906 130.425781 C 340.792969 135.457031 342.078125 140.90625 342.984375 146.78125 C 343.136719 147.765625 343.136719 148.742188 342.980469 149.707031 C 342.949219 149.894531 342.859375 150.054688 342.714844 150.183594 C 342.570312 150.308594 342.402344 150.375 342.210938 150.382812 C 334.429688 150.617188 326.71875 151.464844 319.074219 152.929688 C 317.417969 153.246094 316.039062 154.367188 316.148438 156.234375 C 316.300781 158.863281 319.011719 159.65625 321.257812 159.347656 C 328.007812 158.425781 335 157.785156 342.226562 157.425781 C 342.445312 157.414062 342.632812 157.488281 342.789062 157.640625 C 342.941406 157.796875 343.015625 157.980469 343.007812 158.199219 C 342.851562 161.644531 342.394531 165.0625 341.640625 168.453125 C 341.613281 168.574219 341.5625 168.6875 341.492188 168.789062 C 341.417969 168.886719 341.332031 168.972656 341.226562 169.035156 C 341.121094 169.101562 341.003906 169.140625 340.882812 169.160156 C 340.761719 169.179688 340.640625 169.171875 340.523438 169.140625 C 336.28125 168.058594 331.941406 167.1875 327.5 166.519531 C 322.273438 165.738281 321.003906 171.847656 326.039062 173.089844 C 330.3125 174.144531 334.589844 175.144531 338.875 176.085938 C 339.28125 176.175781 339.4375 176.421875 339.335938 176.828125 C 338.769531 179.109375 337.859375 181.359375 336.609375 183.582031 C 333.347656 189.375 329.804688 194.921875 324.914062 199.398438 C 318.363281 205.386719 310.835938 210 302.789062 213.738281 C 301.585938 214.296875 301.167969 215.179688 301.542969 216.382812 C 302.070312 218.085938 302.910156 219.914062 304.0625 221.875 C 306.734375 226.410156 308.96875 230.648438 310.769531 234.59375 C 315.785156 245.609375 318.808594 257.21875 319.839844 269.417969 C 320 271.273438 320.226562 273.085938 320.519531 274.859375 Z M 124.664062 75.570312 L 126.070312 75.761719 C 126.167969 75.773438 126.203125 75.738281 126.171875 75.644531 C 126.152344 75.585938 126.148438 75.527344 126.148438 75.46875 C 126.167969 75.273438 126.261719 75.125 126.429688 75.027344 C 127.039062 74.679688 127.6875 74.402344 128.371094 74.203125 C 129 74.015625 129.613281 73.730469 130.210938 73.355469 C 130.824219 72.96875 131.425781 72.574219 132.023438 72.175781 C 132.296875 71.992188 132.570312 71.804688 132.839844 71.601562 C 134.609375 70.289062 136.628906 69.144531 138.890625 68.171875 C 139.402344 67.949219 139.96875 67.792969 140.585938 67.703125 C 141.113281 67.628906 141.628906 67.4375 142.125 67.132812 C 143.621094 66.21875 145.15625 65.371094 146.730469 64.589844 C 148.0625 63.933594 149.347656 63.257812 150.585938 62.570312 C 151.875 61.855469 153.175781 61.210938 154.488281 60.636719 C 154.660156 60.558594 154.800781 60.441406 154.910156 60.285156 C 155.15625 59.933594 155.460938 59.648438 155.824219 59.429688 C 156 59.324219 156.078125 59.171875 156.0625 58.972656 C 156.035156 58.578125 155.96875 58.210938 155.855469 57.863281 C 155.855469 57.859375 155.769531 57.699219 155.597656 57.375 C 155.5 57.203125 155.464844 57.003906 155.492188 56.777344 C 155.507812 56.648438 155.46875 56.539062 155.378906 56.445312 C 155.210938 56.277344 155.1875 56.011719 155.308594 55.65625 C 155.871094 55.726562 156.382812 55.453125 156.359375 54.84375 C 156.273438 52.371094 154.960938 50.171875 153.375 48.179688 C 147.265625 40.476562 139.835938 34.191406 130.984375 30.488281 C 126.585938 28.648438 120.410156 27.769531 117.109375 32.191406 C 115.960938 33.738281 114.945312 35.367188 114.066406 37.078125 C 108.257812 48.355469 105.84375 61.09375 105.867188 73.894531 C 105.875 76.828125 106.101562 79.769531 106.546875 82.722656 C 107.074219 86.152344 108.195312 89.863281 112.433594 86.597656 C 115.828125 83.976562 119.214844 81.246094 122.589844 78.410156 C 123.742188 77.4375 124.433594 76.488281 124.664062 75.570312 Z M 285.570312 58 C 285.378906 58.511719 285.109375 59.023438 284.757812 59.539062 C 284.367188 60.105469 284.117188 60.628906 284.003906 61.109375 C 283.519531 63.179688 284.0625 64.984375 285.636719 66.519531 C 286.265625 67.132812 286.914062 67.710938 287.582031 68.25 C 287.714844 68.355469 287.863281 68.414062 288.027344 68.421875 C 288.496094 68.4375 288.871094 68.644531 289.15625 69.035156 C 289.265625 69.191406 289.417969 69.289062 289.609375 69.332031 C 289.925781 69.40625 290.167969 69.621094 290.324219 69.96875 C 290.394531 70.121094 290.507812 70.214844 290.664062 70.261719 C 291.121094 70.394531 291.527344 70.648438 291.886719 71.03125 C 291.96875 71.121094 292.070312 71.175781 292.195312 71.195312 C 292.625 71.261719 292.992188 71.453125 293.308594 71.769531 C 293.53125 71.992188 293.769531 72.191406 294.027344 72.375 C 294.765625 72.90625 295.445312 73.542969 296.0625 74.28125 C 296.175781 74.414062 296.3125 74.507812 296.480469 74.558594 C 296.6875 74.628906 296.859375 74.75 296.988281 74.917969 C 297.453125 75.523438 298.019531 75.929688 298.683594 76.128906 C 298.785156 76.15625 298.863281 76.214844 298.921875 76.296875 C 299.390625 76.941406 299.96875 77.441406 300.652344 77.804688 C 302.394531 78.71875 304.304688 80.09375 306.386719 81.925781 C 306.433594 81.964844 306.457031 81.953125 306.460938 81.894531 C 306.464844 81.84375 306.453125 81.792969 306.421875 81.75 C 306.320312 81.5625 306.351562 81.535156 306.515625 81.671875 C 307.976562 82.875 309.59375 83.652344 311.367188 84.003906 C 310.761719 85.242188 310.867188 86.394531 311.683594 87.460938 C 312.59375 88.644531 313.671875 89.867188 314.925781 91.121094 C 317.1875 93.382812 319.328125 95.734375 321.371094 98.167969 C 323.429688 100.617188 325.464844 98.558594 326.289062 96.457031 C 330.894531 84.777344 331.394531 71.253906 330.390625 58.453125 C 330.117188 54.949219 329.601562 51.484375 328.84375 48.0625 C 327.601562 42.4375 324.746094 35.769531 317.972656 35.492188 C 313.488281 35.3125 308.613281 37.011719 304.546875 39.101562 C 298.636719 42.140625 293.476562 45.871094 289.066406 50.292969 C 287.582031 51.785156 286.433594 53.226562 285.625 54.617188 C 284.9375 55.800781 284.917969 56.929688 285.570312 58 Z M 117.289062 135.296875 C 117.175781 135.230469 117.054688 135.210938 116.921875 135.230469 C 116.007812 135.378906 115.359375 135.902344 114.980469 136.792969 C 112.441406 142.71875 110.125 148.539062 108.019531 154.25 C 107.765625 154.949219 107.636719 155.828125 108.3125 156.359375 C 110.261719 157.871094 111.292969 155.78125 111.867188 154.328125 C 114.238281 148.324219 116.308594 142.707031 118.082031 137.46875 C 118.222656 137.0625 118.214844 136.65625 118.066406 136.25 C 117.917969 135.84375 117.660156 135.523438 117.289062 135.296875 Z M 126.039062 136.851562 C 125.996094 136.707031 125.929688 136.578125 125.832031 136.460938 C 125.738281 136.34375 125.625 136.25 125.496094 136.175781 C 125.363281 136.105469 125.222656 136.058594 125.074219 136.039062 C 124.925781 136.019531 124.777344 136.027344 124.632812 136.066406 C 123.773438 136.296875 123.121094 137.480469 122.808594 138.25 C 120.421875 144.105469 118.195312 150.253906 116.128906 156.691406 C 116.046875 156.953125 116.03125 157.214844 116.085938 157.480469 C 116.523438 159.546875 117.460938 159.867188 118.898438 158.445312 C 119.039062 158.304688 119.144531 158.144531 119.214844 157.960938 C 121.359375 152.46875 123.632812 146.050781 126.03125 138.707031 C 126.230469 138.097656 126.234375 137.480469 126.039062 136.851562 Z M 134.367188 140.84375 C 134.445312 140.628906 134.476562 140.410156 134.464844 140.179688 C 134.453125 139.953125 134.398438 139.734375 134.304688 139.527344 C 134.207031 139.324219 134.070312 139.144531 133.902344 138.988281 C 133.734375 138.835938 133.542969 138.722656 133.328125 138.644531 L 133.257812 138.621094 C 133.042969 138.542969 132.824219 138.511719 132.59375 138.523438 C 132.367188 138.53125 132.148438 138.585938 131.945312 138.683594 C 131.738281 138.78125 131.558594 138.914062 131.40625 139.085938 C 131.25 139.253906 131.136719 139.445312 131.058594 139.660156 L 125.179688 156.082031 C 125.101562 156.296875 125.070312 156.519531 125.082031 156.746094 C 125.089844 156.976562 125.144531 157.191406 125.242188 157.398438 C 125.339844 157.605469 125.472656 157.785156 125.644531 157.9375 C 125.8125 158.089844 126.003906 158.207031 126.21875 158.28125 L 126.289062 158.308594 C 126.5 158.382812 126.722656 158.417969 126.949219 158.40625 C 127.179688 158.394531 127.394531 158.339844 127.601562 158.242188 C 127.808594 158.144531 127.988281 158.011719 128.140625 157.84375 C 128.292969 157.675781 128.410156 157.480469 128.488281 157.269531 Z M 284.914062 169.898438 C 287.714844 163.421875 290.464844 156.757812 293.132812 150.074219 C 293.5 149.148438 293.628906 148.289062 293.515625 147.492188 C 293.390625 146.585938 292.414062 146.191406 291.65625 146.695312 C 290.957031 147.167969 290.460938 147.734375 290.164062 148.394531 C 289.003906 151 286.859375 155.988281 283.734375 163.367188 C 282.816406 165.53125 282.109375 167.542969 281.609375 169.402344 C 281.347656 170.371094 281.640625 171.203125 282.601562 171.527344 C 283.703125 171.894531 284.546875 170.753906 284.914062 169.898438 Z M 284.425781 149.257812 C 284.472656 148.96875 284.425781 148.695312 284.289062 148.433594 C 284.148438 148.175781 283.945312 147.988281 283.675781 147.871094 C 282.15625 147.195312 281.097656 148.597656 280.605469 149.820312 C 278.355469 155.328125 276.34375 160.539062 274.570312 165.457031 C 274.152344 166.625 274.382812 167.53125 275.261719 168.179688 C 275.382812 168.269531 275.519531 168.316406 275.671875 168.324219 C 276.585938 168.351562 277.183594 168.007812 277.472656 167.296875 C 279.132812 163.207031 280.90625 158.789062 282.800781 154.042969 C 283.433594 152.445312 284.144531 150.949219 284.425781 149.257812 Z M 292.871094 163.421875 C 292.050781 165.605469 291.550781 167.304688 291.371094 168.515625 C 291.257812 169.285156 291.523438 169.917969 292.175781 170.410156 C 292.25 170.46875 292.332031 170.507812 292.421875 170.527344 C 293.5 170.816406 294.230469 170.4375 294.621094 169.390625 L 301.117188 151.703125 C 301.179688 151.53125 301.203125 151.359375 301.183594 151.183594 C 300.992188 149.007812 300.011719 148.824219 298.242188 150.632812 C 298.121094 150.753906 298.023438 150.890625 297.949219 151.042969 C 296.59375 153.910156 294.898438 158.039062 292.871094 163.421875 Z M 292.871094 163.421875 " fill-opacity="1" fill-rule="nonzero"/><path fill="#753830" d="M 155.308594 55.65625 C 154.75 55.238281 154.265625 54.730469 153.859375 54.128906 C 148.085938 45.519531 140.210938 37.828125 130.703125 33.492188 C 126.910156 31.761719 121.664062 30.582031 118.8125 34.515625 C 117.5 36.3125 116.367188 38.257812 115.40625 40.34375 C 110.261719 51.5 107.90625 63.597656 108.332031 76.628906 C 108.414062 79.136719 108.796875 81.683594 109.480469 84.269531 C 109.511719 84.382812 109.566406 84.480469 109.644531 84.5625 C 109.726562 84.648438 109.820312 84.707031 109.933594 84.742188 C 110.042969 84.773438 110.15625 84.777344 110.269531 84.753906 C 110.382812 84.730469 110.484375 84.679688 110.570312 84.601562 C 114.09375 81.519531 117.589844 78.816406 121.0625 76.5 C 121.917969 75.933594 123.695312 74.757812 124.664062 75.570312 C 124.433594 76.488281 123.742188 77.4375 122.589844 78.410156 C 119.214844 81.246094 115.828125 83.976562 112.433594 86.597656 C 108.195312 89.863281 107.074219 86.152344 106.546875 82.722656 C 106.101562 79.769531 105.875 76.828125 105.867188 73.894531 C 105.84375 61.09375 108.257812 48.355469 114.066406 37.078125 C 114.945312 35.367188 115.960938 33.738281 117.109375 32.191406 C 120.410156 27.769531 126.585938 28.648438 130.984375 30.488281 C 139.835938 34.191406 147.265625 40.476562 153.375 48.179688 C 154.960938 50.171875 156.273438 52.371094 156.359375 54.84375 C 156.382812 55.453125 155.871094 55.726562 155.308594 55.65625 Z M 155.308594 55.65625 " fill-opacity="1" fill-rule="nonzero"/><path fill="#e1bfb0" d="M 155.308594 55.65625 C 155.1875 56.011719 155.210938 56.277344 155.378906 56.445312 C 155.46875 56.539062 155.507812 56.648438 155.492188 56.777344 C 155.464844 57.003906 155.5 57.203125 155.597656 57.375 C 155.769531 57.699219 155.855469 57.859375 155.855469 57.863281 C 155.96875 58.210938 156.035156 58.578125 156.0625 58.972656 C 156.078125 59.171875 156 59.324219 155.824219 59.429688 C 155.460938 59.648438 155.15625 59.933594 154.910156 60.285156 C 154.800781 60.441406 154.660156 60.558594 154.488281 60.636719 C 153.175781 61.210938 151.875 61.855469 150.585938 62.570312 C 149.347656 63.257812 148.0625 63.933594 146.730469 64.589844 C 145.15625 65.371094 143.621094 66.21875 142.125 67.132812 C 141.628906 67.4375 141.113281 67.628906 140.585938 67.703125 C 139.96875 67.792969 139.402344 67.949219 138.890625 68.171875 C 136.628906 69.144531 134.609375 70.289062 132.839844 71.601562 C 132.570312 71.804688 132.296875 71.992188 132.023438 72.175781 C 131.425781 72.574219 130.824219 72.96875 130.210938 73.355469 C 129.613281 73.730469 129 74.015625 128.371094 74.203125 C 127.6875 74.402344 127.039062 74.679688 126.429688 75.027344 C 126.261719 75.125 126.167969 75.273438 126.148438 75.46875 C 126.148438 75.527344 126.152344 75.585938 126.171875 75.644531 C 126.203125 75.738281 126.167969 75.773438 126.070312 75.761719 L 124.664062 75.570312 C 123.695312 74.757812 121.917969 75.933594 121.0625 76.5 C 117.589844 78.816406 114.09375 81.519531 110.570312 84.601562 C 110.484375 84.679688 110.382812 84.730469 110.269531 84.753906 C 110.15625 84.777344 110.042969 84.773438 109.933594 84.742188 C 109.820312 84.707031 109.726562 84.648438 109.644531 84.5625 C 109.566406 84.480469 109.511719 84.382812 109.480469 84.269531 C 108.796875 81.683594 108.414062 79.136719 108.332031 76.628906 C 107.90625 63.597656 110.261719 51.5 115.40625 40.34375 C 116.367188 38.257812 117.5 36.3125 118.8125 34.515625 C 121.664062 30.582031 126.910156 31.761719 130.703125 33.492188 C 140.210938 37.828125 148.085938 45.519531 153.859375 54.128906 C 154.265625 54.730469 154.75 55.238281 155.308594 55.65625 Z M 155.308594 55.65625 " fill-opacity="1" fill-rule="nonzero"/><path fill="#753830" d="M 311.367188 84.003906 C 312.402344 84.324219 313.359375 84.925781 314.242188 85.808594 C 317.367188 88.949219 320.195312 92.023438 322.722656 95.035156 C 322.773438 95.09375 322.832031 95.132812 322.902344 95.160156 C 322.972656 95.1875 323.046875 95.191406 323.121094 95.179688 C 323.195312 95.167969 323.261719 95.136719 323.320312 95.089844 C 323.378906 95.039062 323.425781 94.980469 323.453125 94.910156 C 325.363281 89.929688 326.589844 84.75 327.125 79.375 C 328.089844 69.746094 327.691406 60.226562 325.925781 50.8125 C 325.460938 48.34375 324.8125 46 323.976562 43.777344 C 322.628906 40.207031 320.144531 38.550781 316.523438 38.808594 C 314.230469 38.980469 311.964844 39.511719 309.730469 40.40625 C 300.871094 43.953125 293.964844 49.636719 287.722656 56.933594 C 287.21875 57.519531 286.5 57.875 285.570312 58 C 284.917969 56.929688 284.9375 55.800781 285.625 54.617188 C 286.433594 53.226562 287.582031 51.785156 289.066406 50.292969 C 293.476562 45.871094 298.636719 42.140625 304.546875 39.101562 C 308.613281 37.011719 313.488281 35.3125 317.972656 35.492188 C 324.746094 35.769531 327.601562 42.4375 328.84375 48.0625 C 329.601562 51.484375 330.117188 54.949219 330.390625 58.453125 C 331.394531 71.253906 330.894531 84.777344 326.289062 96.457031 C 325.464844 98.558594 323.429688 100.617188 321.371094 98.167969 C 319.328125 95.734375 317.1875 93.382812 314.925781 91.121094 C 313.671875 89.867188 312.59375 88.644531 311.683594 87.460938 C 310.867188 86.394531 310.761719 85.242188 311.367188 84.003906 Z M 311.367188 84.003906 " fill-opacity="1" fill-rule="nonzero"/><path fill="#e1bfb0" d="M 311.367188 84.003906 C 309.59375 83.652344 307.976562 82.875 306.515625 81.671875 C 306.351562 81.535156 306.320312 81.5625 306.421875 81.75 C 306.453125 81.792969 306.464844 81.84375 306.460938 81.894531 C 306.457031 81.953125 306.433594 81.964844 306.386719 81.925781 C 304.304688 80.09375 302.394531 78.71875 300.652344 77.804688 C 299.96875 77.441406 299.390625 76.941406 298.921875 76.296875 C 298.863281 76.214844 298.785156 76.15625 298.683594 76.128906 C 298.019531 75.929688 297.453125 75.523438 296.988281 74.917969 C 296.859375 74.75 296.6875 74.628906 296.480469 74.558594 C 296.3125 74.507812 296.175781 74.414062 296.0625 74.28125 C 295.445312 73.542969 294.765625 72.90625 294.027344 72.375 C 293.769531 72.191406 293.53125 71.992188 293.308594 71.769531 C 292.992188 71.453125 292.625 71.261719 292.195312 71.195312 C 292.070312 71.175781 291.96875 71.121094 291.886719 71.03125 C 291.527344 70.648438 291.121094 70.394531 290.664062 70.261719 C 290.507812 70.214844 290.394531 70.121094 290.324219 69.96875 C 290.167969 69.621094 289.925781 69.40625 289.609375 69.332031 C 289.417969 69.289062 289.265625 69.191406 289.15625 69.035156 C 288.871094 68.644531 288.496094 68.4375 288.027344 68.421875 C 287.863281 68.414062 287.714844 68.355469 287.582031 68.25 C 286.914062 67.710938 286.265625 67.132812 285.636719 66.519531 C 284.0625 64.984375 283.519531 63.179688 284.003906 61.109375 C 284.117188 60.628906 284.367188 60.105469 284.757812 59.539062 C 285.109375 59.023438 285.378906 58.511719 285.570312 58 C 286.5 57.875 287.21875 57.519531 287.722656 56.933594 C 293.964844 49.636719 300.871094 43.953125 309.730469 40.40625 C 311.964844 39.511719 314.230469 38.980469 316.523438 38.808594 C 320.144531 38.550781 322.628906 40.207031 323.976562 43.777344 C 324.8125 46 325.460938 48.34375 325.925781 50.8125 C 327.691406 60.226562 328.089844 69.746094 327.125 79.375 C 326.589844 84.75 325.363281 89.929688 323.453125 94.910156 C 323.425781 94.980469 323.378906 95.039062 323.320312 95.089844 C 323.261719 95.136719 323.195312 95.167969 323.121094 95.179688 C 323.046875 95.191406 322.972656 95.1875 322.902344 95.160156 C 322.832031 95.132812 322.773438 95.09375 322.722656 95.035156 C 320.195312 92.023438 317.367188 88.949219 314.242188 85.808594 C 313.359375 84.925781 312.402344 84.324219 311.367188 84.003906 Z M 311.367188 84.003906 " fill-opacity="1" fill-rule="nonzero"/><path fill="#e1bfb0" d="M 248.304688 136.265625 C 246.605469 138.992188 245.5625 142.183594 245.175781 145.84375 C 244.84375 149.03125 245.527344 151.835938 247.226562 154.257812 C 250.976562 159.621094 256.28125 161.828125 263.140625 160.886719 C 265.429688 161.933594 267.625 163.050781 269.722656 164.234375 C 271.113281 165.015625 272.316406 166.011719 273.328125 167.21875 C 274.945312 169.140625 276.433594 171.1875 277.804688 173.363281 C 280.351562 177.40625 281.644531 182.074219 282.824219 186.734375 C 284.960938 195.199219 283.832031 204.039062 279.945312 211.847656 C 278.421875 214.917969 276.195312 217.429688 273.269531 219.390625 C 268.816406 216.140625 263.566406 214.046875 257.957031 214.242188 C 249.867188 214.523438 243.953125 218.199219 240.210938 225.273438 C 239.417969 226.773438 238.855469 228.304688 238.523438 229.867188 C 236.828125 237.925781 238.371094 245.265625 243.15625 251.890625 C 244.941406 254.371094 246.882812 256.503906 248.972656 258.289062 C 249.671875 258.886719 250.558594 259.414062 251.632812 259.875 C 253.71875 261.601562 255.855469 263.242188 258.046875 264.804688 C 262.664062 268.09375 265.675781 275.660156 266.929688 281.175781 C 268.449219 287.878906 268.929688 294.824219 268.375 302.015625 C 267.683594 310.996094 264.707031 320.691406 259.023438 327.871094 C 251.875 336.910156 243.285156 344.417969 231.785156 345.058594 C 227.921875 345.269531 224.300781 345.171875 220.921875 344.761719 C 219.648438 344.605469 218.464844 344.199219 217.375 343.535156 C 216.5625 343.050781 215.6875 342.71875 214.75 342.542969 C 212.394531 342.101562 210.039062 342.054688 207.679688 342.398438 L 188.484375 340.417969 C 185.269531 339.800781 182.089844 339.375 178.941406 339.136719 C 174.746094 338.824219 172.007812 338.566406 170.722656 338.367188 C 162.148438 337.046875 153.820312 334.796875 145.734375 331.628906 C 144.164062 331.011719 142.25 329.867188 140.003906 328.203125 C 138.917969 327.398438 138 326.453125 137.246094 325.363281 C 135.765625 323.214844 134.316406 321.078125 132.902344 318.949219 C 129.292969 313.507812 126.640625 307.457031 124.953125 300.796875 C 123.65625 295.683594 123.660156 290.214844 124.195312 285.039062 C 124.777344 279.378906 125.636719 273.992188 126.773438 268.878906 C 127.976562 263.457031 129.570312 258 131.554688 252.503906 C 133.921875 245.976562 135.925781 239.324219 137.996094 232.636719 C 139.6875 227.183594 140.628906 222.414062 140.820312 218.328125 C 140.839844 217.84375 140.835938 217.390625 140.808594 216.96875 C 140.714844 215.589844 139.347656 214.394531 138.261719 213.703125 C 136.335938 212.476562 134.367188 211.3125 132.363281 210.210938 L 132.542969 209.601562 C 132.59375 209.425781 132.5625 209.261719 132.449219 209.117188 C 127.613281 202.9375 125.511719 195.8125 126.148438 187.746094 C 126.957031 177.574219 130.496094 168.898438 136.765625 161.71875 C 139.585938 158.488281 143.332031 155.671875 148.007812 153.265625 C 149.902344 153.648438 151.214844 153.882812 151.941406 153.972656 C 157.628906 154.679688 162.859375 151.617188 166.210938 147.136719 C 167.964844 144.792969 168.769531 141.890625 168.621094 138.433594 C 168.425781 133.664062 166.914062 129.636719 164.089844 126.351562 C 164.53125 122.472656 166.085938 119.191406 168.757812 116.511719 C 171.5 113.765625 174.691406 111.246094 178.332031 108.953125 C 182.324219 106.449219 186.367188 104.160156 190.828125 103.019531 C 193.910156 102.226562 197.28125 101.679688 200.9375 101.371094 C 209.988281 100.617188 218.148438 102.335938 226.042969 106.902344 C 232.050781 110.378906 237.074219 114.390625 241.113281 118.945312 C 243.019531 121.097656 244.585938 123.429688 245.800781 125.945312 C 247.261719 128.96875 248.097656 132.40625 248.304688 136.265625 Z M 203.613281 154.804688 C 206.316406 158.570312 211.292969 161.1875 216.074219 160.382812 C 219.707031 159.773438 222.886719 156.9375 223.027344 153.164062 C 223.066406 152.339844 222.714844 151.203125 221.828125 150.957031 C 220.300781 150.542969 219.804688 152.230469 219.457031 153.324219 C 218.808594 155.382812 216.4375 156.652344 214.457031 156.695312 C 210.808594 156.78125 206.328125 154.300781 205.710938 150.515625 C 205.351562 148.347656 202.175781 147.871094 201.234375 149.972656 C 199.613281 153.578125 195.949219 155.527344 192.136719 154.949219 C 190.183594 154.65625 188.253906 153.277344 188.011719 151.214844 C 187.917969 150.414062 188.019531 149.019531 187.398438 148.433594 C 186.046875 147.148438 184.578125 148.589844 184.375 150.007812 C 183.808594 153.949219 186.425781 157.066406 189.984375 158.351562 C 194.773438 160.070312 199.539062 158.507812 202.980469 154.769531 C 203.066406 154.671875 203.175781 154.628906 203.304688 154.636719 C 203.433594 154.644531 203.539062 154.699219 203.613281 154.804688 Z M 203.613281 154.804688 " fill-opacity="1" fill-rule="nonzero"/><path fill="#241843" d="M 164.089844 126.351562 C 166.914062 129.636719 168.425781 133.664062 168.621094 138.433594 C 168.769531 141.890625 167.964844 144.792969 166.210938 147.136719 C 162.859375 151.617188 157.628906 154.679688 151.941406 153.972656 C 151.214844 153.882812 149.902344 153.648438 148.007812 153.265625 C 144.40625 151.390625 141.390625 149.28125 139.679688 145.578125 C 136.046875 137.710938 138.683594 129.367188 145.625 124.273438 C 147.859375 122.640625 150.355469 121.753906 153.117188 121.617188 C 156.117188 121.472656 158.847656 122.316406 161.304688 124.148438 C 162.246094 124.851562 163.175781 125.585938 164.089844 126.351562 Z M 164.089844 126.351562 " fill-opacity="1" fill-rule="nonzero"/><path fill="#241843" d="M 263.140625 160.886719 C 256.28125 161.828125 250.976562 159.621094 247.226562 154.257812 C 245.527344 151.835938 244.84375 149.03125 245.175781 145.84375 C 245.5625 142.183594 246.605469 138.992188 248.304688 136.265625 C 250.511719 133.3125 252.875 131.226562 255.386719 130.007812 C 260.675781 127.433594 266.488281 129.039062 270.644531 133.046875 C 276.421875 138.601562 277.871094 147.269531 273.359375 154.058594 C 271.078125 157.484375 267.671875 159.761719 263.140625 160.886719 Z M 263.140625 160.886719 " fill-opacity="1" fill-rule="nonzero"/><path fill="#753830" d="M 117.289062 135.296875 C 117.660156 135.523438 117.917969 135.84375 118.066406 136.25 C 118.214844 136.65625 118.222656 137.0625 118.082031 137.46875 C 116.308594 142.707031 114.238281 148.324219 111.867188 154.328125 C 111.292969 155.78125 110.261719 157.871094 108.3125 156.359375 C 107.636719 155.828125 107.765625 154.949219 108.019531 154.25 C 110.125 148.539062 112.441406 142.71875 114.980469 136.792969 C 115.359375 135.902344 116.007812 135.378906 116.921875 135.230469 C 117.054688 135.210938 117.175781 135.230469 117.289062 135.296875 Z M 117.289062 135.296875 " fill-opacity="1" fill-rule="nonzero"/><path fill="#753830" d="M 126.039062 136.851562 C 126.234375 137.480469 126.230469 138.097656 126.03125 138.707031 C 123.632812 146.050781 121.359375 152.46875 119.214844 157.960938 C 119.144531 158.144531 119.039062 158.304688 118.898438 158.445312 C 117.460938 159.867188 116.523438 159.546875 116.085938 157.480469 C 116.03125 157.214844 116.046875 156.953125 116.128906 156.691406 C 118.195312 150.253906 120.421875 144.105469 122.808594 138.25 C 123.121094 137.480469 123.773438 136.296875 124.632812 136.066406 C 124.777344 136.027344 124.925781 136.019531 125.074219 136.039062 C 125.222656 136.058594 125.363281 136.105469 125.496094 136.175781 C 125.625 136.25 125.738281 136.34375 125.832031 136.460938 C 125.929688 136.578125 125.996094 136.707031 126.039062 136.851562 Z M 126.039062 136.851562 " fill-opacity="1" fill-rule="nonzero"/><path fill="#753830" d="M 133.257812 138.621094 L 133.328125 138.644531 C 133.542969 138.722656 133.734375 138.835938 133.902344 138.988281 C 134.070312 139.144531 134.207031 139.324219 134.304688 139.527344 C 134.402344 139.734375 134.453125 139.953125 134.464844 140.179688 C 134.476562 140.40625 134.445312 140.628906 134.367188 140.84375 L 128.488281 157.265625 C 128.410156 157.480469 128.296875 157.675781 128.140625 157.84375 C 127.988281 158.011719 127.808594 158.144531 127.601562 158.242188 C 127.394531 158.339844 127.179688 158.394531 126.949219 158.40625 C 126.722656 158.417969 126.5 158.382812 126.289062 158.308594 L 126.21875 158.28125 C 126.003906 158.207031 125.8125 158.089844 125.644531 157.9375 C 125.472656 157.785156 125.339844 157.605469 125.242188 157.398438 C 125.144531 157.191406 125.089844 156.976562 125.082031 156.746094 C 125.070312 156.519531 125.101562 156.296875 125.179688 156.082031 L 131.058594 139.660156 C 131.136719 139.445312 131.25 139.253906 131.40625 139.085938 C 131.558594 138.914062 131.738281 138.78125 131.945312 138.683594 C 132.148438 138.585938 132.367188 138.53125 132.59375 138.519531 C 132.824219 138.511719 133.042969 138.542969 133.257812 138.621094 Z M 133.257812 138.621094 " fill-opacity="1" fill-rule="nonzero"/><path fill="#753830" d="M 293.132812 150.074219 C 290.464844 156.757812 287.714844 163.421875 284.914062 169.898438 C 284.546875 170.753906 283.703125 171.894531 282.601562 171.527344 C 281.640625 171.203125 281.347656 170.371094 281.609375 169.402344 C 282.109375 167.542969 282.816406 165.53125 283.734375 163.367188 C 286.859375 155.988281 289.003906 151 290.164062 148.394531 C 290.460938 147.734375 290.957031 147.167969 291.65625 146.695312 C 292.414062 146.191406 293.390625 146.585938 293.515625 147.492188 C 293.628906 148.289062 293.5 149.148438 293.132812 150.074219 Z M 293.132812 150.074219 " fill-opacity="1" fill-rule="nonzero"/><path fill="#753830" d="M 284.425781 149.257812 C 284.144531 150.949219 283.433594 152.445312 282.800781 154.042969 C 280.90625 158.789062 279.132812 163.207031 277.472656 167.296875 C 277.183594 168.007812 276.585938 168.351562 275.671875 168.324219 C 275.519531 168.316406 275.382812 168.269531 275.261719 168.179688 C 274.382812 167.53125 274.152344 166.625 274.570312 165.457031 C 276.34375 160.539062 278.355469 155.328125 280.605469 149.820312 C 281.097656 148.597656 282.15625 147.195312 283.675781 147.871094 C 283.945312 147.988281 284.148438 148.175781 284.289062 148.433594 C 284.425781 148.695312 284.472656 148.96875 284.425781 149.257812 Z M 284.425781 149.257812 " fill-opacity="1" fill-rule="nonzero"/><path fill="#241843" d="M 203.613281 154.804688 C 203.539062 154.699219 203.433594 154.644531 203.304688 154.636719 C 203.175781 154.628906 203.066406 154.671875 202.980469 154.769531 C 199.539062 158.507812 194.773438 160.070312 189.984375 158.351562 C 186.425781 157.066406 183.808594 153.949219 184.375 150.007812 C 184.578125 148.589844 186.046875 147.148438 187.398438 148.433594 C 188.019531 149.019531 187.917969 150.414062 188.011719 151.214844 C 188.253906 153.277344 190.183594 154.65625 192.136719 154.949219 C 195.949219 155.527344 199.613281 153.578125 201.234375 149.972656 C 202.175781 147.871094 205.351562 148.347656 205.710938 150.515625 C 206.328125 154.300781 210.808594 156.78125 214.457031 156.695312 C 216.4375 156.652344 218.808594 155.382812 219.457031 153.324219 C 219.804688 152.230469 220.300781 150.542969 221.828125 150.957031 C 222.714844 151.203125 223.066406 152.339844 223.027344 153.164062 C 222.886719 156.9375 219.707031 159.773438 216.074219 160.382812 C 211.292969 161.1875 206.316406 158.570312 203.613281 154.804688 Z M 203.613281 154.804688 " fill-opacity="1" fill-rule="nonzero"/><path fill="#753830" d="M 292.871094 163.421875 C 294.898438 158.039062 296.59375 153.910156 297.949219 151.042969 C 298.023438 150.890625 298.121094 150.753906 298.242188 150.632812 C 300.011719 148.824219 300.992188 149.007812 301.183594 151.183594 C 301.203125 151.359375 301.179688 151.53125 301.117188 151.703125 L 294.621094 169.390625 C 294.230469 170.4375 293.5 170.816406 292.421875 170.527344 C 292.332031 170.507812 292.25 170.46875 292.175781 170.410156 C 291.523438 169.917969 291.257812 169.285156 291.371094 168.515625 C 291.550781 167.304688 292.050781 165.605469 292.871094 163.421875 Z M 292.871094 163.421875 " fill-opacity="1" fill-rule="nonzero"/><path fill="#753830" d="M 118.089844 204.183594 L 132.363281 210.210938 C 134.367188 211.3125 136.335938 212.476562 138.261719 213.703125 C 139.347656 214.394531 140.714844 215.589844 140.808594 216.96875 C 140.835938 217.390625 140.839844 217.84375 140.820312 218.328125 C 139.890625 218.777344 139.023438 218.683594 138.214844 218.042969 C 133.816406 214.558594 128.347656 211.441406 122.878906 210.074219 C 122.078125 209.875 121.429688 209.652344 120.9375 209.410156 Z M 118.089844 204.183594 " fill-opacity="1" fill-rule="nonzero"/><path fill="#825d56" d="M 120.9375 209.410156 C 121.429688 209.652344 122.078125 209.875 122.878906 210.074219 C 128.347656 211.441406 133.816406 214.558594 138.214844 218.042969 C 139.023438 218.683594 139.890625 218.777344 140.820312 218.328125 C 140.628906 222.414062 139.6875 227.183594 137.996094 232.636719 C 135.925781 239.324219 133.921875 245.976562 131.554688 252.503906 C 129.570312 258 127.976562 263.457031 126.773438 268.878906 C 125.636719 273.992188 124.777344 279.378906 124.195312 285.039062 C 123.660156 290.214844 123.65625 295.683594 124.953125 300.796875 C 126.640625 307.457031 129.292969 313.507812 132.902344 318.949219 C 134.316406 321.078125 135.765625 323.214844 137.246094 325.363281 C 138 326.453125 138.917969 327.398438 140.003906 328.203125 C 142.25 329.867188 144.164062 331.011719 145.734375 331.628906 C 153.820312 334.796875 162.148438 337.046875 170.722656 338.367188 C 172.007812 338.566406 174.746094 338.824219 178.941406 339.136719 C 182.089844 339.375 185.269531 339.800781 188.484375 340.417969 C 184.574219 342.484375 181.285156 344.414062 176.929688 346.078125 C 174.347656 347.0625 172.175781 347.660156 170.410156 347.875 C 162.300781 348.851562 154.113281 348.480469 146.820312 344.714844 C 142.761719 342.621094 138.796875 339.222656 137.84375 334.742188 C 137.382812 332.558594 137.324219 330.417969 137.671875 328.328125 C 137.753906 327.851562 137.617188 327.449219 137.261719 327.117188 C 133.09375 323.21875 129.539062 318.652344 126.597656 313.414062 C 122.390625 305.933594 120.84375 297.226562 121.015625 288.535156 C 121.210938 278.871094 122.066406 269.316406 123.570312 259.871094 C 123.75 258.761719 123.652344 257.703125 123.285156 256.695312 C 123.035156 256 122.65625 255.445312 122.140625 255.03125 C 115.722656 249.820312 110.636719 243.550781 106.890625 236.230469 C 103.566406 229.726562 103.1875 222.273438 107.027344 215.90625 C 109.933594 211.082031 114.570312 208.917969 120.9375 209.410156 Z M 120.9375 209.410156 " fill-opacity="1" fill-rule="nonzero"/><path fill="#753830" d="M 273.269531 219.390625 C 275.726562 221.253906 280.117188 225.089844 280.285156 228.328125 C 280.292969 228.484375 280.265625 228.636719 280.207031 228.78125 C 280.148438 228.925781 280.0625 229.050781 279.949219 229.15625 C 279.835938 229.261719 279.707031 229.339844 279.558594 229.390625 C 279.410156 229.4375 279.257812 229.453125 279.101562 229.4375 C 278.617188 229.382812 278.207031 229.152344 277.867188 228.746094 C 276.535156 227.140625 275.171875 225.648438 273.777344 224.265625 C 269.355469 219.886719 262.523438 216.691406 256.242188 217.699219 C 249.566406 218.769531 245.027344 222.332031 242.625 228.382812 C 238.621094 238.480469 243.777344 249.550781 251.851562 256.101562 C 252.445312 256.582031 252.875 257.171875 253.140625 257.871094 C 253.203125 258.035156 253.199219 258.199219 253.128906 258.363281 C 252.867188 258.957031 252.367188 259.464844 251.632812 259.875 C 250.558594 259.414062 249.671875 258.886719 248.972656 258.289062 C 246.882812 256.503906 244.941406 254.371094 243.15625 251.890625 C 238.371094 245.265625 236.828125 237.925781 238.523438 229.867188 C 238.855469 228.304688 239.417969 226.773438 240.210938 225.273438 C 243.953125 218.199219 249.867188 214.523438 257.957031 214.242188 C 263.566406 214.046875 268.816406 216.140625 273.269531 219.390625 Z M 273.269531 219.390625 " fill-opacity="1" fill-rule="nonzero"/><path fill="#825d56" d="M 316.84375 318.785156 C 317.699219 316.511719 318.3125 314.179688 319.160156 311.902344 C 319.792969 310.199219 320.355469 308.292969 320.847656 306.183594 C 321.761719 302.234375 322.476562 298.59375 322.996094 295.269531 C 323.65625 291.046875 323.75 286.503906 324.035156 282.183594 C 324.042969 282.035156 324.105469 281.910156 324.214844 281.8125 L 325.582031 280.558594 C 327.339844 279.707031 328.425781 279.089844 328.84375 278.695312 C 330.640625 276.996094 332.632812 275.367188 334.226562 273.492188 C 337.316406 269.871094 339.671875 265.875 341.300781 261.507812 C 342.058594 259.476562 343.328125 257.660156 343.910156 255.628906 C 345.421875 250.355469 346.699219 246.324219 347.742188 243.539062 C 350.082031 237.285156 356.402344 230.070312 364 231.328125 C 377.3125 233.527344 374.3125 254.007812 372.0625 262.964844 C 370.726562 268.304688 369.441406 272.542969 368.210938 275.675781 C 365.335938 283.03125 361.667969 289.53125 357.070312 295.734375 C 354.40625 299.332031 352.332031 302.269531 348.621094 305.210938 C 345.460938 307.71875 342.746094 309.675781 340.476562 311.089844 C 339.324219 311.8125 337.285156 312.867188 334.363281 314.257812 C 328.660156 316.964844 323.089844 318.414062 316.84375 318.785156 Z M 316.84375 318.785156 " fill-opacity="1" fill-rule="nonzero"/><path fill="#753830" d="M 320.519531 274.859375 C 322.015625 277.023438 323.703125 278.921875 325.582031 280.558594 L 324.214844 281.8125 C 324.105469 281.910156 324.042969 282.035156 324.035156 282.183594 C 323.75 286.503906 323.65625 291.046875 322.996094 295.269531 C 322.476562 298.59375 321.761719 302.234375 320.847656 306.183594 C 320.355469 308.292969 319.792969 310.199219 319.160156 311.902344 C 318.3125 314.179688 317.699219 316.511719 316.84375 318.785156 L 311.882812 320.089844 C 314.003906 315.582031 315.699219 310.992188 316.964844 306.320312 C 318.605469 300.257812 319.703125 294.109375 320.265625 287.871094 C 320.632812 283.761719 320.535156 279.207031 320.519531 274.859375 Z M 320.519531 274.859375 " fill-opacity="1" fill-rule="nonzero"/></svg>