<svg xmlns="http://www.w3.org/2000/svg" xmlns:xlink="http://www.w3.org/1999/xlink" width="48" zoomAndPan="magnify" viewBox="0 0 36 36.000001" height="48" preserveAspectRatio="xMidYMid meet" version="1.0"><defs><clipPath id="d04dc4dfad"><path d="M 0.488281 0 L 35.511719 0 L 35.511719 35.027344 L 0.488281 35.027344 Z M 0.488281 0 " clip-rule="nonzero"/></clipPath><clipPath id="6ce90f6f2e"><path d="M 0.488281 26 L 10 26 L 10 35.027344 L 0.488281 35.027344 Z M 0.488281 26 " clip-rule="nonzero"/></clipPath><clipPath id="647be349f2"><path d="M 0.488281 27 L 22 27 L 22 35.027344 L 0.488281 35.027344 Z M 0.488281 27 " clip-rule="nonzero"/></clipPath><clipPath id="a758f380bb"><path d="M 0.488281 0 L 35.511719 0 L 35.511719 35.027344 L 0.488281 35.027344 Z M 0.488281 0 " clip-rule="nonzero"/></clipPath><clipPath id="fc4c91abd9"><path d="M 14 28 L 35.511719 28 L 35.511719 35.027344 L 14 35.027344 Z M 14 28 " clip-rule="nonzero"/></clipPath><clipPath id="fc7f135fea"><path d="M 18 18 L 35.511719 18 L 35.511719 35.027344 L 18 35.027344 Z M 18 18 " clip-rule="nonzero"/></clipPath><clipPath id="22738456fc"><path d="M 16 12 L 35.511719 12 L 35.511719 35 L 16 35 Z M 16 12 " clip-rule="nonzero"/></clipPath><clipPath id="14c08d5a69"><path d="M 0.488281 7 L 33 7 L 33 31 L 0.488281 31 Z M 0.488281 7 " clip-rule="nonzero"/></clipPath><clipPath id="8c55928249"><path d="M 0.488281 11 L 18 11 L 18 34 L 0.488281 34 Z M 0.488281 11 " clip-rule="nonzero"/></clipPath><clipPath id="111d0e52cc"><path d="M 0.488281 17 L 15 17 L 15 35.027344 L 0.488281 35.027344 Z M 0.488281 17 " clip-rule="nonzero"/></clipPath><clipPath id="23c9103218"><path d="M 0.488281 26 L 12 26 L 12 35.027344 L 0.488281 35.027344 Z M 0.488281 26 " clip-rule="nonzero"/></clipPath><clipPath id="b48f03e11f"><path d="M 15 13 L 35.511719 13 L 35.511719 35 L 15 35 Z M 15 13 " clip-rule="nonzero"/></clipPath><clipPath id="d900ef2009"><path d="M 14 28 L 35.511719 28 L 35.511719 35.027344 L 14 35.027344 Z M 14 28 " clip-rule="nonzero"/></clipPath><clipPath id="d6097af314"><path d="M 0.488281 28 L 22 28 L 22 35.027344 L 0.488281 35.027344 Z M 0.488281 28 " clip-rule="nonzero"/></clipPath><clipPath id="71c7584f75"><path d="M 0.488281 27 L 13 27 L 13 35.027344 L 0.488281 35.027344 Z M 0.488281 27 " clip-rule="nonzero"/></clipPath><clipPath id="554b660f45"><path d="M 0.488281 12 L 19 12 L 19 34 L 0.488281 34 Z M 0.488281 12 " clip-rule="nonzero"/></clipPath><clipPath id="ad6f95b517"><path d="M 0.488281 27 L 13 27 L 13 35.027344 L 0.488281 35.027344 Z M 0.488281 27 " clip-rule="nonzero"/></clipPath><clipPath id="75a6e20167"><path d="M 0.488281 0 L 16 0 L 16 20 L 0.488281 20 Z M 0.488281 0 " clip-rule="nonzero"/></clipPath><clipPath id="4502162c3c"><path d="M 0.488281 0 L 16 0 L 16 22 L 0.488281 22 Z M 0.488281 0 " clip-rule="nonzero"/></clipPath><clipPath id="d696949ac4"><path d="M 22 0 L 35.511719 0 L 35.511719 21 L 22 21 Z M 22 0 " clip-rule="nonzero"/></clipPath><clipPath id="13c51e6245"><path d="M 22 0 L 35.511719 0 L 35.511719 24 L 22 24 Z M 22 0 " clip-rule="nonzero"/></clipPath><clipPath id="329301aff7"><path d="M 22 0 L 35.511719 0 L 35.511719 23 L 22 23 Z M 22 0 " clip-rule="nonzero"/></clipPath><clipPath id="815047471c"><path d="M 0.488281 13 L 9 13 L 9 35 L 0.488281 35 Z M 0.488281 13 " clip-rule="nonzero"/></clipPath><clipPath id="1664cf5cb2"><path d="M 0.488281 13 L 11 13 L 11 35 L 0.488281 35 Z M 0.488281 13 " clip-rule="nonzero"/></clipPath><clipPath id="4ffba33882"><path d="M 0.488281 14 L 12 14 L 12 35 L 0.488281 35 Z M 0.488281 14 " clip-rule="nonzero"/></clipPath><clipPath id="ace504a539"><path d="M 22 15 L 35.511719 15 L 35.511719 35.027344 L 22 35.027344 Z M 22 15 " clip-rule="nonzero"/></clipPath><clipPath id="5148e4548c"><path d="M 20 16 L 35.511719 16 L 35.511719 35.027344 L 20 35.027344 Z M 20 16 " clip-rule="nonzero"/></clipPath><clipPath id="1e3861a185"><path d="M 23 16 L 35.511719 16 L 35.511719 35.027344 L 23 35.027344 Z M 23 16 " clip-rule="nonzero"/></clipPath><clipPath id="741a00fadf"><path d="M 0.488281 0 L 35.511719 0 L 35.511719 35.027344 L 0.488281 35.027344 Z M 0.488281 0 " clip-rule="nonzero"/></clipPath><clipPath id="372230905d"><path d="M 0.488281 2 L 8 2 L 8 14 L 0.488281 14 Z M 0.488281 2 " clip-rule="nonzero"/></clipPath><clipPath id="289779eb50"><path d="M 0.488281 3 L 8 3 L 8 13 L 0.488281 13 Z M 0.488281 3 " clip-rule="nonzero"/></clipPath><clipPath id="26a3672f14"><path d="M 30 3 L 35.511719 3 L 35.511719 16 L 30 16 Z M 30 3 " clip-rule="nonzero"/></clipPath><clipPath id="6c3dee62c3"><path d="M 30 4 L 35.511719 4 L 35.511719 15 L 30 15 Z M 30 4 " clip-rule="nonzero"/></clipPath><clipPath id="97de143be8"><path d="M 1 15 L 31 15 L 31 35.027344 L 1 35.027344 Z M 1 15 " clip-rule="nonzero"/></clipPath><clipPath id="83f95c871b"><path d="M 0.488281 21 L 1 21 L 1 26 L 0.488281 26 Z M 0.488281 21 " clip-rule="nonzero"/></clipPath><clipPath id="cb8e29fec3"><path d="M 0.488281 22 L 3 22 L 3 27 L 0.488281 27 Z M 0.488281 22 " clip-rule="nonzero"/></clipPath><clipPath id="7a37101a6e"><path d="M 0.488281 34 L 5 34 L 5 35.027344 L 0.488281 35.027344 Z M 0.488281 34 " clip-rule="nonzero"/></clipPath></defs><g clip-path="url(#d04dc4dfad)"><path fill="#ffffff" d="M 0.488281 0 L 35.511719 0 L 35.511719 35.027344 L 0.488281 35.027344 Z M 0.488281 0 " fill-opacity="1" fill-rule="nonzero"/><path fill="#202124" d="M 0.488281 0 L 35.511719 0 L 35.511719 35.027344 L 0.488281 35.027344 Z M 0.488281 0 " fill-opacity="1" fill-rule="nonzero"/></g><g clip-path="url(#6ce90f6f2e)"><path stroke-linecap="butt" transform="matrix(0.72973, 0, 0, 0.72973, -8.661345, -1.562555)" fill="none" stroke-linejoin="miter" d="M 12.613319 49.504706 L 13.319916 50.81084 " stroke="#da8250" stroke-width="2" stroke-opacity="1" stroke-miterlimit="4"/></g><g clip-path="url(#647be349f2)"><path stroke-linecap="butt" transform="matrix(0.72973, 0, 0, 0.72973, -8.661345, -1.562555)" fill="none" stroke-linejoin="miter" d="M 13.319916 50.81084 C 11.730073 50.687721 10.573823 51.228375 9.845813 52.432802 C 8.887625 54.022646 8.983979 55.885493 9.813695 57.507455 C 10.750472 59.338184 12.019135 60.901263 13.625038 62.207397 C 13.75351 62.309104 13.844511 62.448283 13.908747 62.619579 C 13.999749 62.87117 14.026514 63.138821 13.978336 63.417177 C 13.603626 65.772501 13.389505 68.159943 13.341328 70.574151 C 13.298504 72.747472 13.683921 74.920794 14.738464 76.788995 C 15.471826 78.100482 16.360426 79.240673 17.398909 80.214921 C 17.489911 80.295216 17.522029 80.396923 17.50597 80.514689 C 17.414968 81.039284 17.431027 81.574585 17.548794 82.115239 C 17.784326 83.239371 18.774633 84.085146 19.786352 84.609741 C 21.611728 85.551871 23.656577 85.642872 25.680015 85.396634 C 26.124315 85.343103 26.664969 85.193219 27.30733 84.952334 C 28.399344 84.534799 29.218354 84.053028 30.197955 83.533786 " stroke="#de9c6d" stroke-width="2" stroke-opacity="1" stroke-miterlimit="4"/></g><g clip-path="url(#a758f380bb)"><path stroke-linecap="butt" transform="matrix(0.72973, 0, 0, 0.72973, -8.661345, -1.562555)" fill="none" stroke-linejoin="miter" d="M 63.177845 67.158931 C 63.108256 66.714631 63.049373 66.264978 63.011902 65.799266 C 62.754958 62.753404 61.99483 59.852073 60.742226 57.100626 C 60.292573 56.115672 59.73586 55.055777 59.066734 53.920939 C 58.783025 53.433815 58.568904 52.978809 58.440432 52.550568 C 58.344078 52.2508 58.451138 52.031326 58.750907 51.892148 C 60.758285 50.955371 62.642544 49.804474 64.275212 48.305632 C 65.501051 47.192206 66.384298 45.805777 67.197955 44.355111 C 67.50843 43.803751 67.738609 43.241685 67.877787 42.668913 C 67.904552 42.567206 67.867081 42.508323 67.765374 42.486911 C 66.694772 42.251378 65.624171 41.999787 64.558922 41.737489 C 63.300964 41.427015 63.616792 39.901407 64.922926 40.094116 C 66.030999 40.260059 67.11766 40.479532 68.177556 40.747183 C 68.32744 40.790007 68.418441 40.731124 68.455912 40.575886 C 68.643268 39.730111 68.755681 38.878982 68.798505 38.017148 C 68.803858 37.883323 68.739622 37.819087 68.600444 37.82444 C 66.79648 37.915441 65.051399 38.070678 63.365201 38.30621 C 62.803135 38.381153 62.123302 38.183091 62.085831 37.524671 C 62.059066 37.058959 62.407012 36.780603 62.819194 36.700308 C 64.730218 36.336303 66.657301 36.122183 68.600444 36.0633 C 68.707504 36.057947 68.77174 36.004416 68.787799 35.897356 C 68.830623 35.656471 68.830623 35.410232 68.793152 35.163994 C 68.562973 33.697269 68.241792 32.332252 67.82961 31.079648 C 67.262191 29.366685 66.689419 27.787547 66.116647 26.336882 C 65.977469 25.983583 65.96141 25.624931 66.063117 25.255574 C 66.40571 23.960145 66.700125 22.621893 66.946364 21.240817 C 67.567313 17.734596 67.642255 14.206962 67.165837 10.668623 C 66.941011 9.003837 66.544888 7.435406 65.977469 5.974034 C 65.404697 4.50731 64.478627 3.806065 62.840606 4.073716 C 60.003511 4.534075 57.26277 5.502969 54.607677 6.851928 C 53.729784 7.290874 52.873302 7.756586 52.038233 8.238357 C 50.009442 9.394607 48.184066 10.679329 46.562104 12.087171 C 46.406867 12.220996 46.187394 12.194231 46.000038 12.162113 C 42.493817 11.600047 39.051832 11.236042 35.674083 11.075452 C 34.202006 11.005863 32.392689 11.048687 30.256838 11.209277 C 29.855362 11.236042 29.593065 11.182512 29.298649 10.930921 C 28.003221 9.817495 26.788088 8.645186 25.390952 7.644173 C 23.677989 6.418334 21.981085 5.288849 20.08612 4.373484 C 18.838869 3.773947 17.586265 3.243999 16.328308 2.788994 C 14.840171 2.253693 12.913088 1.771922 11.660483 2.912113 C 11.296479 3.238646 10.959239 3.790006 10.632706 4.56084 C 10.386467 5.144318 10.150935 5.754561 9.926108 6.391569 C 8.159615 11.39128 7.490489 16.449873 7.91873 21.561997 C 7.945495 21.872472 7.988319 22.182946 8.041849 22.498774 C 8.116791 22.916309 8.057908 23.285666 7.875906 23.596141 C 7.383429 24.447269 6.92307 25.271633 6.494829 26.074584 C 5.493817 27.942784 4.733689 29.89128 4.225153 31.909364 C 4.150211 32.187721 4.102034 32.466077 4.069916 32.749787 C 4.064563 32.797964 4.085975 32.824729 4.139505 32.830082 C 4.942457 32.905024 5.814997 33.017437 6.76248 33.151262 C 7.249604 33.226205 8.004378 33.370736 8.100732 33.938155 C 8.261322 34.874931 7.554725 35.078346 6.81601 34.987345 C 5.788232 34.864225 4.824691 34.78393 3.925385 34.746459 C 3.861149 34.746459 3.829031 34.778577 3.829031 34.842813 C 3.823678 35.613647 3.861149 36.43801 3.936091 37.310551 C 3.941444 37.358728 3.962856 37.374787 4.011033 37.364081 C 4.776513 37.166019 5.547347 37.005429 6.328886 36.876957 C 6.585831 36.839486 6.805304 36.876957 6.987306 36.98937 C 7.388782 37.240962 7.490489 37.920794 7.067601 38.236621 C 6.907011 38.359741 6.735715 38.445389 6.559066 38.498919 C 5.87388 38.702333 5.172636 38.900394 4.444627 39.08775 C 4.353626 39.109162 4.321508 39.168045 4.34292 39.253693 C 5.408169 43.905458 8.743093 47.042322 12.613319 49.504706 " stroke="#de9c6d" stroke-width="2" stroke-opacity="1" stroke-miterlimit="4"/></g><g clip-path="url(#fc4c91abd9)"><path stroke-linecap="butt" transform="matrix(0.72973, 0, 0, 0.72973, -8.661345, -1.562555)" fill="none" stroke-linejoin="miter" d="M 45.973273 63.417177 C 46.155276 63.31547 46.278395 63.186998 46.342631 63.037114 C 46.364043 62.999642 46.364043 62.956818 46.347984 62.913994 C 46.278395 62.742698 46.171335 62.592814 46.026803 62.475048 C 44.008719 60.837027 42.718644 58.069521 43.719656 55.548254 C 44.319193 54.038705 45.454031 53.150105 47.12417 52.882455 C 48.692602 52.630863 50.400212 53.428462 51.502932 54.520476 C 51.850878 54.863068 52.19347 55.237779 52.525357 55.639255 C 52.611005 55.740962 52.712712 55.799845 52.835831 55.810551 C 52.916126 55.821257 52.985715 55.799845 53.044599 55.740962 C 53.103482 55.687432 53.130247 55.617843 53.130247 55.537547 C 53.087423 54.729243 51.990056 53.765701 51.37446 53.29999 " stroke="#fbb170" stroke-width="2" stroke-opacity="1" stroke-miterlimit="4"/></g><g clip-path="url(#fc7f135fea)"><path stroke-linecap="butt" transform="matrix(0.72973, 0, 0, 0.72973, -8.661345, -1.562555)" fill="none" stroke-linejoin="miter" d="M 51.37446 53.29999 C 52.107822 52.812866 52.664535 52.186564 53.044599 51.41573 C 54.013493 49.467235 54.297203 47.256442 53.761902 45.147356 C 53.467486 43.9804 53.146306 42.813444 52.509298 41.801726 C 52.166705 41.261072 51.791994 40.747183 51.390519 40.270765 C 51.138927 39.965643 50.839159 39.719405 50.491213 39.526697 C 49.966618 39.226928 49.420611 38.948572 48.847839 38.686274 " stroke="#ffd9ab" stroke-width="2" stroke-opacity="1" stroke-miterlimit="4"/></g><g clip-path="url(#22738456fc)"><path stroke-linecap="butt" transform="matrix(0.72973, 0, 0, 0.72973, -8.661345, -1.562555)" fill="none" stroke-linejoin="miter" d="M 48.847839 38.686274 C 49.977324 38.407918 50.828453 37.835146 51.401225 36.984017 C 52.525357 35.287113 52.161352 33.119144 50.721393 31.732715 C 49.682909 30.731702 48.232243 30.330227 46.91005 30.972588 C 46.278395 31.277709 45.689564 31.796951 45.138204 32.535666 " stroke="#de9c6d" stroke-width="2" stroke-opacity="1" stroke-miterlimit="4"/></g><g clip-path="url(#14c08d5a69)"><path stroke-linecap="butt" transform="matrix(0.72973, 0, 0, 0.72973, -8.661345, -1.562555)" fill="none" stroke-linejoin="miter" d="M 45.138204 32.535666 C 45.090027 31.572125 44.881259 30.715643 44.511902 29.960869 C 44.212133 29.329214 43.821364 28.745736 43.344946 28.210435 C 42.333227 27.075597 41.080623 26.069231 39.576427 25.202044 C 37.60652 24.061853 35.567023 23.633612 33.308053 23.820967 C 32.392689 23.895909 31.552266 24.035088 30.781433 24.233149 C 29.668007 24.516858 28.656288 25.08963 27.660628 25.715932 C 26.750617 26.288704 25.953018 26.915007 25.267833 27.600192 C 24.598707 28.274671 24.21329 29.093681 24.100877 30.062576 " stroke="#ffd9ab" stroke-width="2" stroke-opacity="1" stroke-miterlimit="4"/></g><g clip-path="url(#8c55928249)"><path stroke-linecap="butt" transform="matrix(0.72973, 0, 0, 0.72973, -8.661345, -1.562555)" fill="none" stroke-linejoin="miter" d="M 24.100877 30.062576 C 23.876051 29.869868 23.640518 29.687865 23.404986 29.511216 C 22.794743 29.050857 22.109558 28.84209 21.360136 28.879561 C 20.669598 28.911679 20.048649 29.131152 19.491936 29.543334 C 17.757561 30.811997 17.099141 32.899671 18.003799 34.864225 C 18.43204 35.790296 19.186815 36.314891 20.08612 36.785956 " stroke="#de9c6d" stroke-width="2" stroke-opacity="1" stroke-miterlimit="4"/></g><g clip-path="url(#111d0e52cc)"><path stroke-linecap="butt" transform="matrix(0.72973, 0, 0, 0.72973, -8.661345, -1.562555)" fill="none" stroke-linejoin="miter" d="M 20.08612 36.785956 C 18.919164 37.385493 17.982387 38.086737 17.27579 38.895041 C 15.712711 40.6883 14.824112 42.856268 14.626051 45.398948 C 14.46546 47.411679 14.990055 49.194231 16.199835 50.735898 C 16.2266 50.773369 16.237306 50.81084 16.221247 50.859017 L 16.178423 51.008902 " stroke="#ffd9ab" stroke-width="2" stroke-opacity="1" stroke-miterlimit="4"/></g><g clip-path="url(#23c9103218)"><path stroke-linecap="butt" transform="matrix(0.72973, 0, 0, 0.72973, -8.661345, -1.562555)" fill="none" stroke-linejoin="miter" d="M 16.178423 51.008902 L 12.613319 49.504706 " stroke="#fbb170" stroke-width="2" stroke-opacity="1" stroke-miterlimit="4"/></g><g clip-path="url(#b48f03e11f)"><path stroke-linecap="butt" transform="matrix(0.72973, 0, 0, 0.72973, -8.661345, -1.562555)" fill="none" stroke-linejoin="miter" d="M 45.138204 32.535666 C 44.715316 33.220852 44.453019 34.01845 44.356664 34.928462 C 44.276369 35.72606 44.447666 36.427304 44.870553 37.032194 C 45.80733 38.370447 47.134876 38.921807 48.847839 38.686274 " stroke="#deaa8a" stroke-width="2" stroke-opacity="1" stroke-miterlimit="4"/></g><g clip-path="url(#d900ef2009)"><path stroke-linecap="butt" transform="matrix(0.72973, 0, 0, 0.72973, -8.661345, -1.562555)" fill="none" stroke-linejoin="miter" d="M 51.37446 53.29999 C 50.266387 52.491685 48.954899 51.96709 47.552411 52.015267 C 45.528973 52.084856 44.051543 53.005574 43.120119 54.772067 C 42.922058 55.146778 42.777527 55.526841 42.697232 55.917611 C 42.274344 57.930343 42.65976 59.766425 43.853482 61.420505 C 44.297781 62.041454 44.784905 62.576755 45.304147 63.021055 C 45.480796 63.170939 45.70027 63.299411 45.973273 63.417177 " stroke="#fbbf8e" stroke-width="2" stroke-opacity="1" stroke-miterlimit="4"/></g><g clip-path="url(#d6097af314)"><path stroke-linecap="butt" transform="matrix(0.72973, 0, 0, 0.72973, -8.661345, -1.562555)" fill="none" stroke-linejoin="miter" d="M 30.197955 83.533786 C 29.395003 83.383902 28.597405 83.276842 27.810513 83.217959 C 26.766676 83.137664 26.081491 83.073427 25.76031 83.02525 C 23.619106 82.693364 21.536786 82.131298 19.518701 81.339052 C 19.122578 81.183815 18.646161 80.900106 18.084095 80.482571 C 17.816444 80.28451 17.586265 80.048977 17.398909 79.775974 C 17.024199 79.240673 16.665547 78.705372 16.312249 78.175424 C 15.40759 76.81576 14.74917 75.300858 14.326282 73.641425 C 13.999749 72.362056 14.005102 70.997038 14.138927 69.70161 C 14.283458 68.288416 14.497578 66.94481 14.781288 65.665441 C 15.081056 64.31113 15.477179 62.946112 15.975009 61.575742 C 16.56384 59.943074 17.067023 58.283641 17.586265 56.613502 C 18.003799 55.248485 18.239332 54.060117 18.287509 53.037692 " stroke="#ffd9ab" stroke-width="2" stroke-opacity="1" stroke-miterlimit="4"/></g><g clip-path="url(#71c7584f75)"><path stroke-linecap="butt" transform="matrix(0.72973, 0, 0, 0.72973, -8.661345, -1.562555)" fill="none" stroke-linejoin="miter" d="M 18.287509 53.037692 C 18.292862 52.914573 18.292862 52.80216 18.287509 52.6951 C 18.260744 52.352507 17.923504 52.052738 17.650501 51.881442 C 17.16873 51.576321 16.676253 51.281905 16.178423 51.008902 " stroke="#fbbf8e" stroke-width="2" stroke-opacity="1" stroke-miterlimit="4"/></g><g clip-path="url(#554b660f45)"><path stroke-linecap="butt" transform="matrix(0.72973, 0, 0, 0.72973, -8.661345, -1.562555)" fill="none" stroke-linejoin="miter" d="M 20.08612 36.785956 C 20.557185 36.876957 20.883719 36.93584 21.065721 36.962605 C 22.489621 37.139254 23.795756 36.373774 24.630825 35.254995 C 25.069772 34.666164 25.273186 33.943508 25.235715 33.07632 C 25.187538 31.887952 24.807474 30.881586 24.100877 30.062576 " stroke="#deaa8a" stroke-width="2" stroke-opacity="1" stroke-miterlimit="4"/></g><g clip-path="url(#ad6f95b517)"><path stroke-linecap="butt" transform="matrix(0.72973, 0, 0, 0.72973, -8.661345, -1.562555)" fill="none" stroke-linejoin="miter" d="M 18.287509 53.037692 C 18.05733 53.150105 17.837856 53.12334 17.639795 52.968103 C 16.542428 52.095562 15.172058 51.319376 13.80704 50.976784 C 13.608979 50.923253 13.443036 50.869723 13.319916 50.81084 " stroke="#fbb170" stroke-width="2" stroke-opacity="1" stroke-miterlimit="4"/></g><g clip-path="url(#75a6e20167)"><path stroke-linecap="butt" transform="matrix(0.72973, 0, 0, 0.72973, -8.661345, -1.562555)" fill="none" stroke-linejoin="miter" d="M 14.25134 17.375944 L 14.604639 17.424121 C 14.631404 17.424121 14.636757 17.418768 14.631404 17.392003 C 14.626051 17.381297 14.626051 17.365238 14.626051 17.349179 C 14.631404 17.301002 14.652816 17.263531 14.69564 17.242119 C 14.845524 17.151118 15.006114 17.081528 15.177411 17.033351 C 15.338001 16.985174 15.487885 16.915585 15.637769 16.819231 C 15.793007 16.72823 15.942891 16.626523 16.092775 16.524815 C 16.162364 16.481991 16.2266 16.433814 16.29619 16.385637 C 16.740489 16.053751 17.243672 15.770041 17.805738 15.529156 C 17.93421 15.470273 18.078742 15.432802 18.228626 15.41139 C 18.362451 15.389977 18.490923 15.3418 18.614043 15.266858 C 18.988753 15.036679 19.37417 14.827912 19.76494 14.62985 C 20.096826 14.46926 20.418007 14.297964 20.728481 14.126667 C 21.049662 13.950018 21.376195 13.789428 21.702729 13.644896 C 21.745553 13.623484 21.783024 13.596719 21.809789 13.559248 C 21.868672 13.468247 21.948967 13.398658 22.039969 13.345128 C 22.082793 13.318363 22.098852 13.280892 22.098852 13.227362 C 22.088146 13.131008 22.072087 13.040006 22.045322 12.954358 C 22.045322 12.949005 22.023909 12.911534 21.981085 12.831239 C 21.95432 12.788415 21.948967 12.734885 21.95432 12.681355 C 21.959673 12.649237 21.948967 12.622472 21.927555 12.595707 C 21.884731 12.552883 21.879378 12.488646 21.911496 12.402998 " stroke="#ffcda4" stroke-width="2" stroke-opacity="1" stroke-miterlimit="4"/></g><g clip-path="url(#4502162c3c)"><path stroke-linecap="butt" transform="matrix(0.72973, 0, 0, 0.72973, -8.661345, -1.562555)" fill="none" stroke-linejoin="miter" d="M 21.911496 12.402998 C 22.050675 12.419057 22.179147 12.349468 22.173794 12.199584 C 22.147029 11.578635 21.820495 11.032628 21.424372 10.534798 C 19.898765 8.607715 18.041271 7.039283 15.830478 6.113212 C 14.733111 5.652854 13.191444 5.43338 12.367081 6.541453 C 12.078018 6.92687 11.826427 7.333698 11.606953 7.761939 C 10.156288 10.577622 9.551398 13.75731 9.556751 16.958409 C 9.562104 17.686418 9.615634 18.425134 9.728047 19.163849 C 9.861872 20.020331 10.140229 20.946401 11.200125 20.132744 C 12.0459 19.474324 12.891676 18.794491 13.737451 18.082541 C 14.021161 17.841656 14.19781 17.606123 14.25134 17.375944 " stroke="#fbb170" stroke-width="2" stroke-opacity="1" stroke-miterlimit="4"/><path stroke-linecap="butt" transform="matrix(0.72973, 0, 0, 0.72973, -8.661345, -1.562555)" fill="none" stroke-linejoin="miter" d="M 21.911496 12.402998 C 21.766965 12.295938 21.649199 12.167466 21.547492 12.017582 C 20.102179 9.871025 18.137625 7.949295 15.760889 6.862634 C 14.813406 6.42904 13.501919 6.134624 12.789968 7.119578 C 12.463435 7.569231 12.179725 8.056355 11.93884 8.575597 C 10.654118 11.364514 10.065287 14.383612 10.172347 17.638241 C 10.193759 18.264543 10.290113 18.901552 10.461409 19.549266 C 10.477468 19.608149 10.514939 19.64562 10.573823 19.667032 C 10.632706 19.683091 10.686236 19.672385 10.734413 19.629561 C 11.612306 18.858728 12.484847 18.184248 13.352034 17.606123 C 13.566155 17.466945 14.010455 17.17253 14.25134 17.375944 " stroke="#fbb387" stroke-width="2" stroke-opacity="1" stroke-miterlimit="4"/></g><g clip-path="url(#d696949ac4)"><path stroke-linecap="butt" transform="matrix(0.72973, 0, 0, 0.72973, -8.661345, -1.562555)" fill="none" stroke-linejoin="miter" d="M 54.447087 12.986476 C 54.39891 13.114949 54.334674 13.243421 54.243673 13.371893 C 54.147319 13.511071 54.083082 13.644896 54.056317 13.762663 C 53.938551 14.281905 54.072376 14.731557 54.463146 15.111621 C 54.623736 15.266858 54.784327 15.41139 54.95027 15.545215 C 54.982388 15.57198 55.019859 15.588039 55.062683 15.588039 C 55.180449 15.593392 55.27145 15.646922 55.346393 15.743276 C 55.373158 15.780747 55.410629 15.807512 55.458806 15.818218 C 55.539101 15.834277 55.597984 15.887807 55.635455 15.978809 C 55.651514 16.010927 55.683632 16.037692 55.721103 16.048398 C 55.833516 16.080516 55.935224 16.144752 56.026225 16.241106 C 56.047637 16.262518 56.074402 16.278577 56.10652 16.28393 C 56.208227 16.299989 56.304581 16.348166 56.379523 16.423108 C 56.438407 16.481991 56.49729 16.530168 56.561526 16.578346 C 56.743528 16.712171 56.914824 16.867408 57.070062 17.054763 C 57.096827 17.086881 57.134298 17.108293 57.171769 17.124353 C 57.225299 17.140412 57.268123 17.17253 57.300241 17.210001 C 57.418007 17.365238 57.557185 17.466945 57.723129 17.515122 C 57.749894 17.520475 57.771306 17.536534 57.782012 17.557946 C 57.899778 17.718537 58.044309 17.841656 58.215606 17.932657 C 58.649199 18.162836 59.13097 18.505429 59.650212 18.960435 C 59.660918 18.971141 59.666271 18.971141 59.666271 18.955082 C 59.666271 18.944376 59.666271 18.928317 59.655565 18.917611 C 59.634153 18.869434 59.639506 18.864081 59.68233 18.901552 C 60.046335 19.20132 60.44781 19.394028 60.89211 19.479677 " stroke="#ffcda4" stroke-width="2" stroke-opacity="1" stroke-miterlimit="4"/></g><g clip-path="url(#13c51e6245)"><path stroke-linecap="butt" transform="matrix(0.72973, 0, 0, 0.72973, -8.661345, -1.562555)" fill="none" stroke-linejoin="miter" d="M 60.89211 19.479677 C 60.742226 19.790151 60.768991 20.079214 60.972405 20.346864 C 61.197232 20.64128 61.470235 20.946401 61.78071 21.262229 C 62.348129 21.824295 62.88343 22.413126 63.391966 23.018016 C 63.905855 23.633612 64.41439 23.119723 64.623158 22.595128 C 65.768702 19.677738 65.897174 16.294636 65.645583 13.098889 C 65.575993 12.226349 65.447521 11.359161 65.260166 10.50268 C 64.949691 9.100192 64.237741 7.430053 62.540837 7.365816 C 61.422058 7.317639 60.206925 7.740527 59.189853 8.265122 C 57.712423 9.025249 56.422347 9.956673 55.324981 11.059393 C 54.95027 11.434104 54.66656 11.792755 54.463146 12.140701 C 54.29185 12.435116 54.286497 12.718826 54.447087 12.986476 " stroke="#fbb170" stroke-width="2" stroke-opacity="1" stroke-miterlimit="4"/></g><g clip-path="url(#329301aff7)"><path stroke-linecap="butt" transform="matrix(0.72973, 0, 0, 0.72973, -8.661345, -1.562555)" fill="none" stroke-linejoin="miter" d="M 60.89211 19.479677 C 61.154408 19.559972 61.38994 19.709856 61.609414 19.934682 C 62.390953 20.716222 63.09755 21.487055 63.729205 22.236476 C 63.75597 22.268594 63.788088 22.2793 63.830912 22.273947 C 63.868383 22.268594 63.895149 22.247182 63.911208 22.204358 C 64.387625 20.96246 64.6981 19.667032 64.831925 18.323427 C 65.072811 15.919925 64.971103 13.543189 64.532157 11.187865 C 64.41439 10.572269 64.2538 9.988791 64.045033 9.432078 C 63.707793 8.543479 63.086844 8.125944 62.182186 8.19018 C 61.609414 8.233004 61.041995 8.366829 60.485282 8.591656 C 58.269136 9.474902 56.545467 10.898803 54.987741 12.718826 C 54.859269 12.86871 54.682619 12.954358 54.447087 12.986476 " stroke="#fbb387" stroke-width="2" stroke-opacity="1" stroke-miterlimit="4"/></g><g clip-path="url(#815047471c)"><path stroke-linecap="butt" transform="matrix(0.72973, 0, 0, 0.72973, -8.661345, -1.562555)" fill="none" stroke-linejoin="miter" d="M 12.409905 32.294781 C 12.38314 32.278722 12.351022 32.273369 12.318904 32.278722 C 12.088724 32.316193 11.928134 32.444665 11.83178 32.669492 C 11.200125 34.152275 10.622 35.602941 10.097405 37.032194 C 10.033169 37.203491 10.001051 37.422964 10.166994 37.556789 C 10.654118 37.936853 10.911062 37.412258 11.055593 37.048253 C 11.649777 35.549411 12.163666 34.146922 12.607966 32.840788 C 12.688261 32.605255 12.624025 32.423253 12.409905 32.294781 " stroke="#fbb170" stroke-width="2" stroke-opacity="1" stroke-miterlimit="4"/></g><g clip-path="url(#1664cf5cb2)"><path stroke-linecap="butt" transform="matrix(0.72973, 0, 0, 0.72973, -8.661345, -1.562555)" fill="none" stroke-linejoin="miter" d="M 14.599286 32.685551 C 14.540402 32.508901 14.427989 32.439312 14.245987 32.487489 C 14.031867 32.546372 13.865923 32.840788 13.790981 33.033496 C 13.191444 34.494868 12.634731 36.031181 12.120842 37.642437 C 12.09943 37.706673 12.09943 37.77091 12.110136 37.835146 C 12.222549 38.354388 12.452729 38.434683 12.81138 38.076031 C 12.848851 38.043913 12.875617 38.001089 12.891676 37.958265 C 13.426977 36.582541 13.994395 34.981992 14.593933 33.145909 C 14.647463 32.996025 14.647463 32.840788 14.599286 32.685551 " stroke="#fbb170" stroke-width="2" stroke-opacity="1" stroke-miterlimit="4"/></g><g clip-path="url(#4ffba33882)"><path stroke-linecap="butt" transform="matrix(0.72973, 0, 0, 0.72973, -8.661345, -1.562555)" fill="none" stroke-linejoin="miter" d="M 16.676253 33.68121 C 16.719077 33.568797 16.713724 33.461737 16.660194 33.354677 C 16.612017 33.247617 16.531722 33.172674 16.419309 33.12985 L 16.397897 33.124497 C 16.290837 33.087026 16.178423 33.092379 16.071363 33.140556 C 15.964303 33.194087 15.889361 33.274382 15.85189 33.386795 L 14.379812 37.4872 C 14.342341 37.599613 14.347694 37.706673 14.395871 37.819087 C 14.449401 37.926147 14.529696 37.995736 14.64211 38.03856 L 14.658169 38.043913 C 14.770582 38.081384 14.877642 38.076031 14.990055 38.027854 C 15.097115 37.974324 15.166705 37.894029 15.209529 37.781616 L 16.676253 33.68121 " stroke="#fbb170" stroke-width="2" stroke-opacity="1" stroke-miterlimit="4"/></g><g clip-path="url(#ace504a539)"><path stroke-linecap="butt" transform="matrix(0.72973, 0, 0, 0.72973, -8.661345, -1.562555)" fill="none" stroke-linejoin="miter" d="M 54.286497 40.939891 C 54.982388 39.323282 55.672926 37.658496 56.336699 35.988357 C 56.4277 35.758178 56.459819 35.538705 56.433053 35.340643 C 56.400935 35.115817 56.16005 35.019463 55.967342 35.142582 C 55.796045 35.260348 55.667573 35.404879 55.597984 35.56547 C 55.308922 36.218537 54.773621 37.465788 53.992081 39.307223 C 53.761902 39.847877 53.585253 40.35106 53.45678 40.816772 C 53.392544 41.057657 53.467486 41.266425 53.708372 41.34672 C 53.981375 41.437721 54.195496 41.154011 54.286497 40.939891 " stroke="#fbb170" stroke-width="2" stroke-opacity="1" stroke-miterlimit="4"/></g><g clip-path="url(#5148e4548c)"><path stroke-linecap="butt" transform="matrix(0.72973, 0, 0, 0.72973, -8.661345, -1.562555)" fill="none" stroke-linejoin="miter" d="M 54.163378 35.784943 C 54.190143 35.619 54.125906 35.501234 53.976022 35.436997 C 53.595959 35.265701 53.333661 35.619 53.210542 35.924121 C 52.648476 37.299845 52.145293 38.600626 51.700993 39.831818 C 51.593933 40.120881 51.652816 40.345707 51.87229 40.51165 C 51.904408 40.533062 51.936526 40.543768 51.973997 40.543768 C 52.204176 40.554474 52.35406 40.468826 52.42365 40.286824 C 52.841184 39.269752 53.285484 38.161679 53.756549 36.978664 C 53.917139 36.577188 54.093788 36.207831 54.163378 35.784943 " stroke="#fbb170" stroke-width="2" stroke-opacity="1" stroke-miterlimit="4"/></g><g clip-path="url(#1e3861a185)"><path stroke-linecap="butt" transform="matrix(0.72973, 0, 0, 0.72973, -8.661345, -1.562555)" fill="none" stroke-linejoin="miter" d="M 56.272463 39.323282 C 56.069049 39.869289 55.940577 40.292177 55.897753 40.591945 C 55.870988 40.784654 55.935224 40.945244 56.101167 41.068363 C 56.117226 41.079069 56.138638 41.089775 56.16005 41.095128 C 56.4277 41.17007 56.615056 41.073716 56.71141 40.811419 L 58.333372 36.395186 C 58.349431 36.352362 58.354784 36.309538 58.349431 36.261361 C 58.301254 35.720707 58.055015 35.67253 57.616069 36.127536 C 57.58395 36.154301 57.557185 36.191772 57.541126 36.229243 C 57.203887 36.946546 56.780999 37.974324 56.272463 39.323282 " stroke="#fbb170" stroke-width="2" stroke-opacity="1" stroke-miterlimit="4"/></g><path stroke-linecap="butt" transform="matrix(0.72973, 0, 0, 0.72973, -8.661345, -1.562555)" fill="none" stroke-linejoin="miter" d="M 33.977179 37.166019 C 34.651659 38.108149 35.893557 38.761216 37.087278 38.563155 C 37.997289 38.407918 38.789535 37.70132 38.827006 36.759191 C 38.832359 36.555776 38.746711 36.266714 38.527237 36.207831 C 38.141821 36.106124 38.018701 36.523658 37.933053 36.796662 C 37.772463 37.310551 37.178279 37.631731 36.685802 37.642437 C 35.770437 37.663849 34.651659 37.0429 34.496421 36.095418 C 34.410773 35.554764 33.618528 35.436997 33.382995 35.961592 C 32.976167 36.860898 32.060802 37.348022 31.107966 37.203491 C 30.620842 37.128548 30.139072 36.785956 30.080189 36.272067 C 30.053423 36.074006 30.080189 35.72606 29.924951 35.576176 C 29.587712 35.254995 29.218354 35.613647 29.170177 35.972298 C 29.030999 36.951899 29.684066 37.733438 30.572665 38.054619 C 31.766386 38.48286 32.960108 38.09209 33.816589 37.160666 C 33.875472 37.09643 33.929002 37.101783 33.977179 37.166019 " stroke="#deaa8a" stroke-width="2" stroke-opacity="1" stroke-miterlimit="4"/><g clip-path="url(#741a00fadf)"><path fill="#241843" d="M 38.78125 46.304688 C 38.785156 46.351562 38.800781 46.355469 38.828125 46.316406 C 39.398438 45.578125 39.824219 44.835938 40.101562 44.097656 C 40.320312 43.53125 40.519531 42.890625 40.703125 42.183594 C 41.199219 40.265625 42.371094 38.414062 44.4375 38.070312 C 46.300781 37.757812 47.882812 38.820312 48.410156 40.601562 C 48.660156 41.441406 48.742188 42.347656 48.65625 43.3125 C 48.421875 45.949219 47.628906 48.394531 46.285156 50.644531 C 46.042969 51.054688 45.753906 51.488281 45.421875 51.949219 C 45.082031 52.421875 44.765625 52.816406 44.472656 53.132812 C 42.464844 55.324219 39.976562 56.597656 37.011719 56.957031 C 36.929688 56.964844 36.835938 57.011719 36.792969 57.085938 C 35.109375 60.179688 32.214844 62.234375 28.648438 62.4375 C 28.480469 62.449219 28.324219 62.527344 28.183594 62.613281 C 27.210938 63.203125 26.238281 63.652344 25.269531 63.953125 C 23.800781 64.40625 22.222656 64.519531 20.527344 64.296875 C 19.074219 64.101562 17.765625 63.582031 16.835938 62.460938 C 16.5625 62.132812 16.363281 61.722656 16.226562 61.226562 C 16.207031 61.15625 16.164062 61.117188 16.089844 61.113281 C 15.332031 61.050781 14.578125 60.976562 13.832031 60.882812 C 13.742188 60.875 13.660156 60.890625 13.582031 60.941406 C 11.667969 62.144531 9.53125 62.566406 7.175781 62.207031 C 5.089844 61.882812 2.765625 60.414062 2.605469 58.085938 C 2.59375 57.90625 2.574219 57.726562 2.546875 57.550781 C 2.542969 57.523438 2.53125 57.496094 2.511719 57.476562 C 2.199219 57.136719 1.925781 56.820312 1.699219 56.527344 C 0.507812 55.003906 -0.164062 53.28125 -0.316406 51.359375 C -0.359375 50.835938 -0.378906 50.203125 -0.371094 49.460938 C -0.359375 47.898438 -0.21875 46.355469 0.0507812 44.832031 C 0.0664062 44.753906 0.0429688 44.6875 -0.0195312 44.632812 C -1.082031 43.6875 -1.953125 42.609375 -2.636719 41.402344 C -3.816406 39.308594 -3.8125 36.621094 -1.863281 35.027344 C -1.816406 34.992188 -1.796875 34.945312 -1.796875 34.886719 C -1.796875 34.832031 -1.820312 34.785156 -1.863281 34.75 C -2.703125 34.074219 -3.46875 33.34375 -4.175781 32.570312 C -5.484375 31.148438 -6.378906 29.472656 -6.863281 27.550781 C -6.878906 27.488281 -6.921875 27.460938 -6.984375 27.472656 C -7.382812 27.542969 -7.667969 27.457031 -7.839844 27.210938 C -8.046875 26.917969 -7.992188 26.4375 -7.707031 26.230469 C -7.578125 26.132812 -7.410156 26.082031 -7.265625 26.019531 C -7.230469 26.007812 -7.214844 25.984375 -7.222656 25.949219 C -7.3125 25.257812 -7.335938 24.582031 -7.289062 23.917969 C -7.289062 23.875 -7.304688 23.855469 -7.347656 23.855469 C -7.527344 23.859375 -7.710938 23.847656 -7.902344 23.816406 C -8.5 23.722656 -8.726562 23 -8.304688 22.589844 C -8.0625 22.355469 -7.546875 22.335938 -7.214844 22.3125 C -7.167969 22.308594 -7.140625 22.285156 -7.132812 22.238281 C -6.730469 19.792969 -5.667969 17.519531 -4.367188 15.34375 C -4.335938 15.285156 -4.320312 15.226562 -4.324219 15.164062 C -4.492188 12.914062 -4.453125 10.757812 -4.210938 8.695312 C -3.910156 6.152344 -3.285156 3.675781 -2.332031 1.261719 C -2.117188 0.710938 -1.808594 0.0859375 -1.410156 -0.347656 C -0.273438 -1.582031 1.503906 -1.589844 3.0625 -1.089844 C 5.257812 -0.386719 7.265625 0.550781 9.074219 1.71875 C 10.578125 2.6875 12.003906 3.800781 13.351562 5.058594 C 13.441406 5.144531 13.550781 5.179688 13.675781 5.167969 C 15.132812 5.039062 16.566406 5.015625 17.980469 5.097656 C 19.441406 5.183594 20.800781 5.304688 22.050781 5.460938 C 22.984375 5.578125 23.863281 5.6875 24.691406 5.792969 C 24.757812 5.800781 24.8125 5.785156 24.863281 5.746094 C 26.472656 4.453125 28.273438 3.339844 30.132812 2.367188 C 31.9375 1.425781 33.867188 0.679688 35.859375 0.238281 C 36.464844 0.105469 37.0625 0.0429688 37.652344 0.046875 C 40.285156 0.0703125 40.984375 2.34375 41.492188 4.480469 C 41.59375 4.910156 41.675781 5.324219 41.730469 5.722656 C 42.136719 8.574219 42.09375 11.394531 41.601562 14.1875 C 41.4375 15.113281 41.25 15.992188 41.03125 16.828125 C 41.007812 16.917969 41.015625 17.007812 41.054688 17.09375 C 41.324219 17.6875 41.578125 18.265625 41.78125 18.890625 C 42.191406 20.132812 42.507812 21.382812 42.738281 22.648438 C 42.859375 23.300781 42.933594 23.941406 42.964844 24.570312 C 42.96875 24.628906 42.996094 24.664062 43.054688 24.679688 C 43.433594 24.78125 43.707031 24.917969 43.699219 25.375 C 43.691406 25.675781 43.570312 25.882812 43.339844 25.996094 C 43.226562 26.050781 43.101562 26.042969 42.988281 26.089844 C 42.957031 26.105469 42.9375 26.128906 42.933594 26.164062 C 42.902344 26.929688 42.816406 27.695312 42.679688 28.457031 C 42.667969 28.503906 42.6875 28.539062 42.734375 28.5625 C 43.121094 28.738281 43.441406 28.886719 43.433594 29.386719 C 43.421875 29.972656 42.945312 30.226562 42.390625 30.070312 C 42.296875 30.042969 42.238281 30.078125 42.210938 30.167969 C 41.722656 31.769531 40.875 33.144531 39.675781 34.289062 C 38.488281 35.417969 37.207031 36.378906 35.828125 37.167969 C 35.792969 37.1875 35.789062 37.214844 35.808594 37.25 C 37.230469 39.496094 38.125 42.132812 38.617188 44.804688 C 38.710938 45.300781 38.742188 45.804688 38.78125 46.304688 Z M 0.542969 34.5625 L 1.058594 35.515625 C -0.101562 35.425781 -0.945312 35.820312 -1.476562 36.699219 C -2.175781 37.859375 -2.105469 39.21875 -1.5 40.402344 C -0.816406 41.738281 0.109375 42.878906 1.28125 43.832031 C 1.375 43.90625 1.441406 44.007812 1.488281 44.132812 C 1.554688 44.316406 1.574219 44.511719 1.539062 44.714844 C 1.265625 46.433594 1.109375 48.175781 1.074219 49.9375 C 1.042969 51.523438 1.324219 53.109375 2.09375 54.472656 C 2.628906 55.429688 3.277344 56.261719 4.035156 56.972656 C 4.101562 57.03125 4.125 57.105469 4.113281 57.191406 C 4.046875 57.574219 4.058594 57.964844 4.144531 58.359375 C 4.316406 59.179688 5.039062 59.796875 5.777344 60.179688 C 7.109375 60.867188 8.601562 60.933594 10.078125 60.753906 C 10.402344 60.714844 10.796875 60.605469 11.265625 60.429688 C 12.0625 60.125 12.660156 59.773438 13.375 59.394531 L 16.871094 59.757812 C 17.050781 60.050781 17.242188 60.332031 17.449219 60.597656 C 17.582031 60.769531 17.683594 60.933594 17.757812 61.089844 C 18.132812 61.875 18.960938 62.398438 19.785156 62.621094 C 21.691406 63.125 23.589844 63.019531 25.480469 62.304688 C 26.015625 62.105469 26.542969 61.917969 27.0625 61.671875 C 27.351562 61.53125 27.597656 61.292969 27.871094 61.125 C 27.980469 61.058594 28.097656 61.015625 28.222656 61.003906 C 28.84375 60.941406 29.453125 60.890625 30.050781 60.757812 C 32.5 60.207031 34.453125 58.4375 35.582031 56.203125 C 35.625 56.117188 35.671875 56.03125 35.722656 55.949219 C 35.777344 55.859375 35.828125 55.773438 35.867188 55.691406 L 36.773438 55.453125 C 37.910156 55.386719 38.925781 55.121094 39.964844 54.628906 C 40.5 54.375 40.871094 54.179688 41.082031 54.050781 C 41.492188 53.792969 41.988281 53.433594 42.566406 52.976562 C 43.242188 52.441406 43.621094 51.90625 44.105469 51.25 C 44.941406 50.121094 45.613281 48.933594 46.136719 47.59375 C 46.359375 47.023438 46.59375 46.25 46.839844 45.277344 C 47.25 43.644531 47.796875 39.910156 45.367188 39.511719 C 43.984375 39.28125 42.832031 40.597656 42.40625 41.734375 C 42.214844 42.242188 41.980469 42.976562 41.707031 43.941406 C 41.601562 44.308594 41.371094 44.640625 41.230469 45.011719 C 40.933594 45.808594 40.503906 46.535156 39.941406 47.195312 C 39.652344 47.539062 39.289062 47.835938 38.960938 48.144531 C 38.882812 48.214844 38.6875 48.328125 38.367188 48.484375 C 38.023438 48.1875 37.714844 47.839844 37.441406 47.445312 C 37.390625 47.121094 37.347656 46.792969 37.320312 46.453125 C 37.132812 44.230469 36.578125 42.113281 35.664062 40.105469 C 35.335938 39.386719 34.929688 38.613281 34.441406 37.785156 C 34.234375 37.429688 34.078125 37.097656 33.984375 36.785156 C 33.914062 36.566406 33.992188 36.40625 34.210938 36.304688 C 35.675781 35.621094 37.050781 34.78125 38.242188 33.6875 C 39.136719 32.875 39.78125 31.863281 40.375 30.804688 C 40.601562 30.402344 40.769531 29.992188 40.871094 29.574219 C 40.890625 29.5 40.863281 29.457031 40.789062 29.441406 C 40.007812 29.269531 39.226562 29.085938 38.449219 28.894531 C 37.53125 28.667969 37.761719 27.554688 38.714844 27.695312 C 39.523438 27.816406 40.316406 27.976562 41.089844 28.171875 C 41.199219 28.203125 41.265625 28.160156 41.292969 28.046875 C 41.429688 27.429688 41.511719 26.808594 41.542969 26.179688 C 41.546875 26.082031 41.5 26.035156 41.398438 26.039062 C 40.082031 26.105469 38.808594 26.21875 37.578125 26.390625 C 37.167969 26.445312 36.671875 26.300781 36.644531 25.820312 C 36.625 25.480469 36.878906 25.277344 37.179688 25.21875 C 38.574219 24.953125 39.980469 24.796875 41.398438 24.753906 C 41.476562 24.75 41.523438 24.710938 41.535156 24.632812 C 41.566406 24.457031 41.566406 24.277344 41.539062 24.097656 C 41.371094 23.027344 41.136719 22.03125 40.835938 21.117188 C 40.421875 19.867188 40.003906 18.714844 39.585938 17.65625 C 39.484375 17.398438 39.472656 17.136719 39.546875 16.867188 C 39.796875 15.921875 40.011719 14.945312 40.191406 13.9375 C 40.644531 11.378906 40.699219 8.804688 40.351562 6.222656 C 40.1875 5.007812 39.898438 3.863281 39.484375 2.796875 C 39.066406 1.726562 38.390625 1.214844 37.195312 1.410156 C 35.125 1.746094 33.125 2.453125 31.1875 3.4375 C 30.546875 3.757812 29.921875 4.097656 29.3125 4.449219 C 27.832031 5.292969 26.5 6.230469 25.316406 7.257812 C 25.203125 7.355469 25.042969 7.335938 24.90625 7.3125 C 22.347656 6.902344 19.835938 6.636719 17.371094 6.519531 C 16.296875 6.46875 14.976562 6.5 13.417969 6.617188 C 13.125 6.636719 12.933594 6.597656 12.71875 6.414062 C 11.773438 5.601562 10.886719 4.746094 9.867188 4.015625 C 8.617188 3.121094 7.378906 2.296875 5.996094 1.628906 C 5.085938 1.191406 4.171875 0.804688 3.253906 0.472656 C 2.167969 0.0820312 0.761719 -0.269531 -0.152344 0.5625 C -0.417969 0.800781 -0.664062 1.203125 -0.902344 1.765625 C -1.082031 2.191406 -1.253906 2.636719 -1.417969 3.101562 C -2.707031 6.75 -3.195312 10.441406 -2.882812 14.171875 C -2.863281 14.398438 -2.832031 14.625 -2.792969 14.855469 C -2.738281 15.160156 -2.78125 15.429688 -2.914062 15.65625 C -3.273438 16.277344 -3.609375 16.878906 -3.921875 17.464844 C -4.652344 18.828125 -5.207031 20.25 -5.578125 21.722656 C -5.632812 21.925781 -5.667969 22.128906 -5.691406 22.335938 C -5.695312 22.371094 -5.679688 22.390625 -5.640625 22.394531 C -5.054688 22.449219 -4.417969 22.53125 -3.726562 22.628906 C -3.371094 22.683594 -2.820312 22.789062 -2.75 23.203125 C -2.632812 23.886719 -3.148438 24.035156 -3.6875 23.96875 C -4.4375 23.878906 -5.140625 23.820312 -5.796875 23.792969 C -5.84375 23.792969 -5.867188 23.816406 -5.867188 23.863281 C -5.871094 24.425781 -5.84375 25.027344 -5.789062 25.664062 C -5.785156 25.699219 -5.769531 25.710938 -5.734375 25.703125 C -5.175781 25.558594 -4.613281 25.441406 -4.042969 25.347656 C -3.855469 25.320312 -3.695312 25.347656 -3.5625 25.429688 C -3.269531 25.613281 -3.195312 26.109375 -3.503906 26.339844 C -3.621094 26.429688 -3.746094 26.492188 -3.875 26.53125 C -4.375 26.679688 -4.886719 26.824219 -5.417969 26.960938 C -5.484375 26.976562 -5.507812 27.019531 -5.492188 27.082031 C -4.714844 30.476562 -2.28125 32.765625 0.542969 34.5625 Z M 0.542969 34.5625 " fill-opacity="1" fill-rule="nonzero"/><path fill="#ffe6c8" d="M 37.441406 47.445312 C 37.445312 48.238281 37.464844 49.066406 37.394531 49.816406 C 37.292969 50.953125 37.09375 52.074219 36.792969 53.179688 C 36.5625 54.03125 36.253906 54.867188 35.867188 55.691406 C 35.828125 55.773438 35.777344 55.859375 35.722656 55.949219 C 35.671875 56.03125 35.625 56.117188 35.582031 56.203125 C 34.453125 58.4375 32.5 60.207031 30.050781 60.757812 C 29.453125 60.890625 28.84375 60.941406 28.222656 61.003906 C 28.097656 61.015625 27.980469 61.058594 27.871094 61.125 C 27.597656 61.292969 27.351562 61.53125 27.0625 61.671875 C 26.542969 61.917969 26.015625 62.105469 25.480469 62.304688 C 23.589844 63.019531 21.691406 63.125 19.785156 62.621094 C 18.960938 62.398438 18.132812 61.875 17.757812 61.089844 C 17.683594 60.933594 17.582031 60.769531 17.449219 60.597656 C 17.242188 60.332031 17.050781 60.050781 16.871094 59.757812 C 17.304688 59.695312 17.734375 59.703125 18.160156 59.785156 C 18.332031 59.816406 18.492188 59.875 18.640625 59.964844 C 18.839844 60.085938 19.054688 60.160156 19.285156 60.1875 C 19.902344 60.261719 20.5625 60.28125 21.265625 60.242188 C 23.363281 60.125 24.929688 58.757812 26.234375 57.109375 C 27.269531 55.800781 27.8125 54.03125 27.9375 52.394531 C 28.039062 51.085938 27.949219 49.820312 27.671875 48.597656 C 27.445312 47.589844 26.894531 46.210938 26.054688 45.613281 C 25.65625 45.328125 25.265625 45.027344 24.886719 44.714844 C 25.019531 44.640625 25.109375 44.546875 25.15625 44.4375 C 25.171875 44.410156 25.171875 44.378906 25.160156 44.347656 C 25.109375 44.222656 25.03125 44.113281 24.925781 44.027344 C 23.453125 42.832031 22.511719 40.8125 23.242188 38.972656 C 23.679688 37.871094 24.507812 37.222656 25.726562 37.027344 C 26.871094 36.84375 28.117188 37.425781 28.921875 38.222656 C 29.175781 38.472656 29.425781 38.746094 29.667969 39.039062 C 29.730469 39.113281 29.804688 39.15625 29.894531 39.164062 C 29.953125 39.171875 30.003906 39.15625 30.046875 39.113281 C 30.089844 39.074219 30.109375 39.023438 30.109375 38.964844 C 30.078125 38.375 29.277344 37.671875 28.828125 37.332031 C 29.363281 36.976562 29.769531 36.519531 30.046875 35.957031 C 30.753906 34.535156 30.960938 32.921875 30.570312 31.382812 C 30.355469 30.53125 30.121094 29.679688 29.65625 28.941406 C 29.40625 28.546875 29.132812 28.171875 28.839844 27.824219 C 28.65625 27.601562 28.4375 27.421875 28.183594 27.28125 C 27.800781 27.0625 27.402344 26.859375 26.984375 26.667969 C 27.808594 26.464844 28.429688 26.046875 28.847656 25.425781 C 29.667969 24.1875 29.402344 22.605469 28.351562 21.59375 C 27.59375 20.863281 26.535156 20.570312 25.570312 21.039062 C 25.109375 21.261719 24.679688 21.640625 24.277344 22.179688 C 24.242188 21.476562 24.089844 20.851562 23.820312 20.300781 C 23.601562 19.839844 23.316406 19.414062 22.96875 19.023438 C 22.230469 18.195312 21.316406 17.460938 20.21875 16.828125 C 18.78125 15.996094 17.292969 15.683594 15.644531 15.820312 C 14.976562 15.875 14.363281 15.976562 13.800781 16.121094 C 12.988281 16.328125 12.25 16.746094 11.523438 17.203125 C 10.859375 17.621094 10.277344 18.078125 9.777344 18.578125 C 9.289062 19.070312 9.007812 19.667969 8.925781 20.375 C 8.761719 20.234375 8.589844 20.101562 8.417969 19.972656 C 7.972656 19.636719 7.472656 19.484375 6.925781 19.511719 C 6.421875 19.535156 5.96875 19.695312 5.5625 19.996094 C 4.296875 20.921875 3.816406 22.445312 4.476562 23.878906 C 4.789062 24.554688 5.339844 24.9375 5.996094 25.28125 C 5.144531 25.71875 4.460938 26.230469 3.945312 26.820312 C 2.804688 28.128906 2.15625 29.710938 2.011719 31.566406 C 1.894531 33.035156 2.277344 34.335938 3.160156 35.460938 C 3.179688 35.488281 3.1875 35.515625 3.175781 35.550781 L 3.144531 35.660156 L 0.542969 34.5625 C -2.28125 32.765625 -4.714844 30.476562 -5.492188 27.082031 C -5.507812 27.019531 -5.484375 26.976562 -5.417969 26.960938 C -4.886719 26.824219 -4.375 26.679688 -3.875 26.53125 C -3.746094 26.492188 -3.621094 26.429688 -3.503906 26.339844 C -3.195312 26.109375 -3.269531 25.613281 -3.5625 25.429688 C -3.695312 25.347656 -3.855469 25.320312 -4.042969 25.347656 C -4.613281 25.441406 -5.175781 25.558594 -5.734375 25.703125 C -5.769531 25.710938 -5.785156 25.699219 -5.789062 25.664062 C -5.84375 25.027344 -5.871094 24.425781 -5.867188 23.863281 C -5.867188 23.816406 -5.84375 23.792969 -5.796875 23.792969 C -5.140625 23.820312 -4.4375 23.878906 -3.6875 23.96875 C -3.148438 24.035156 -2.632812 23.886719 -2.75 23.203125 C -2.820312 22.789062 -3.371094 22.683594 -3.726562 22.628906 C -4.417969 22.53125 -5.054688 22.449219 -5.640625 22.394531 C -5.679688 22.390625 -5.695312 22.371094 -5.691406 22.335938 C -5.667969 22.128906 -5.632812 21.925781 -5.578125 21.722656 C -5.207031 20.25 -4.652344 18.828125 -3.921875 17.464844 C -3.609375 16.878906 -3.273438 16.277344 -2.914062 15.65625 C -2.78125 15.429688 -2.738281 15.160156 -2.792969 14.855469 C -2.832031 14.625 -2.863281 14.398438 -2.882812 14.171875 C -3.195312 10.441406 -2.707031 6.75 -1.417969 3.101562 C -1.253906 2.636719 -1.082031 2.191406 -0.902344 1.765625 C -0.664062 1.203125 -0.417969 0.800781 -0.152344 0.5625 C 0.761719 -0.269531 2.167969 0.0820312 3.253906 0.472656 C 4.171875 0.804688 5.085938 1.191406 5.996094 1.628906 C 7.378906 2.296875 8.617188 3.121094 9.867188 4.015625 C 10.886719 4.746094 11.773438 5.601562 12.71875 6.414062 C 12.933594 6.597656 13.125 6.636719 13.417969 6.617188 C 14.976562 6.5 16.296875 6.46875 17.371094 6.519531 C 19.835938 6.636719 22.347656 6.902344 24.90625 7.3125 C 25.042969 7.335938 25.203125 7.355469 25.316406 7.257812 C 26.5 6.230469 27.832031 5.292969 29.3125 4.449219 C 29.921875 4.097656 30.546875 3.757812 31.1875 3.4375 C 33.125 2.453125 35.125 1.746094 37.195312 1.410156 C 38.390625 1.214844 39.066406 1.726562 39.484375 2.796875 C 39.898438 3.863281 40.1875 5.007812 40.351562 6.222656 C 40.699219 8.804688 40.644531 11.378906 40.191406 13.9375 C 40.011719 14.945312 39.796875 15.921875 39.546875 16.867188 C 39.472656 17.136719 39.484375 17.398438 39.585938 17.65625 C 40.003906 18.714844 40.421875 19.867188 40.835938 21.117188 C 41.136719 22.03125 41.371094 23.027344 41.539062 24.097656 C 41.566406 24.277344 41.566406 24.457031 41.535156 24.632812 C 41.523438 24.710938 41.476562 24.75 41.398438 24.753906 C 39.980469 24.796875 38.574219 24.953125 37.179688 25.21875 C 36.878906 25.277344 36.625 25.480469 36.644531 25.820312 C 36.671875 26.300781 37.167969 26.445312 37.578125 26.390625 C 38.808594 26.21875 40.082031 26.105469 41.398438 26.039062 C 41.5 26.035156 41.546875 26.082031 41.542969 26.179688 C 41.511719 26.808594 41.429688 27.429688 41.292969 28.046875 C 41.265625 28.160156 41.199219 28.203125 41.089844 28.171875 C 40.316406 27.976562 39.523438 27.816406 38.714844 27.695312 C 37.761719 27.554688 37.53125 28.667969 38.449219 28.894531 C 39.226562 29.085938 40.007812 29.269531 40.789062 29.441406 C 40.863281 29.457031 40.890625 29.5 40.871094 29.574219 C 40.769531 29.992188 40.601562 30.402344 40.375 30.804688 C 39.78125 31.863281 39.136719 32.875 38.242188 33.6875 C 37.050781 34.78125 35.675781 35.621094 34.210938 36.304688 C 33.992188 36.40625 33.914062 36.566406 33.984375 36.785156 C 34.078125 37.097656 34.234375 37.429688 34.441406 37.785156 C 34.929688 38.613281 35.335938 39.386719 35.664062 40.105469 C 36.578125 42.113281 37.132812 44.230469 37.320312 46.453125 C 37.347656 46.792969 37.390625 47.121094 37.441406 47.445312 Z M 1.738281 11.117188 L 1.996094 11.152344 C 2.015625 11.152344 2.019531 11.148438 2.015625 11.128906 C 2.011719 11.121094 2.011719 11.109375 2.011719 11.097656 C 2.015625 11.0625 2.03125 11.035156 2.0625 11.019531 C 2.171875 10.953125 2.289062 10.902344 2.414062 10.867188 C 2.53125 10.832031 2.640625 10.78125 2.75 10.710938 C 2.863281 10.644531 2.972656 10.570312 3.082031 10.496094 C 3.132812 10.464844 3.179688 10.429688 3.230469 10.394531 C 3.554688 10.152344 3.921875 9.945312 4.332031 9.769531 C 4.425781 9.726562 4.53125 9.699219 4.640625 9.683594 C 4.738281 9.667969 4.832031 9.632812 4.921875 9.578125 C 5.195312 9.410156 5.476562 9.257812 5.761719 9.113281 C 6.003906 8.996094 6.238281 8.871094 6.464844 8.746094 C 6.699219 8.617188 6.9375 8.5 7.175781 8.394531 C 7.207031 8.378906 7.234375 8.359375 7.253906 8.332031 C 7.296875 8.265625 7.355469 8.214844 7.421875 8.175781 C 7.453125 8.15625 7.464844 8.128906 7.464844 8.089844 C 7.457031 8.019531 7.445312 7.953125 7.425781 7.890625 C 7.425781 7.886719 7.410156 7.859375 7.378906 7.800781 C 7.359375 7.769531 7.355469 7.730469 7.359375 7.691406 C 7.363281 7.667969 7.355469 7.648438 7.339844 7.628906 C 7.308594 7.597656 7.304688 7.550781 7.328125 7.488281 C 7.429688 7.5 7.523438 7.449219 7.519531 7.339844 C 7.5 6.886719 7.261719 6.488281 6.972656 6.125 C 5.859375 4.71875 4.503906 3.574219 2.890625 2.898438 C 2.089844 2.5625 0.964844 2.402344 0.363281 3.210938 C 0.152344 3.492188 -0.03125 3.789062 -0.191406 4.101562 C -1.25 6.15625 -1.691406 8.476562 -1.6875 10.8125 C -1.683594 11.34375 -1.644531 11.882812 -1.5625 12.421875 C -1.464844 13.046875 -1.261719 13.722656 -0.488281 13.128906 C 0.128906 12.648438 0.746094 12.152344 1.363281 11.632812 C 1.570312 11.457031 1.699219 11.285156 1.738281 11.117188 Z M 31.070312 7.914062 C 31.035156 8.007812 30.988281 8.101562 30.921875 8.195312 C 30.851562 8.296875 30.804688 8.394531 30.785156 8.480469 C 30.699219 8.859375 30.796875 9.1875 31.082031 9.464844 C 31.199219 9.578125 31.316406 9.683594 31.4375 9.78125 C 31.460938 9.800781 31.488281 9.8125 31.519531 9.8125 C 31.605469 9.816406 31.671875 9.855469 31.726562 9.925781 C 31.746094 9.953125 31.773438 9.972656 31.808594 9.980469 C 31.867188 9.992188 31.910156 10.03125 31.9375 10.097656 C 31.949219 10.121094 31.972656 10.140625 32 10.148438 C 32.082031 10.171875 32.15625 10.21875 32.222656 10.289062 C 32.238281 10.304688 32.257812 10.316406 32.28125 10.320312 C 32.355469 10.332031 32.425781 10.367188 32.480469 10.421875 C 32.523438 10.464844 32.566406 10.5 32.613281 10.535156 C 32.746094 10.632812 32.871094 10.746094 32.984375 10.882812 C 33.003906 10.90625 33.03125 10.921875 33.058594 10.933594 C 33.097656 10.945312 33.128906 10.96875 33.152344 10.996094 C 33.238281 11.109375 33.339844 11.183594 33.460938 11.21875 C 33.480469 11.222656 33.496094 11.234375 33.503906 11.25 C 33.589844 11.367188 33.695312 11.457031 33.820312 11.523438 C 34.136719 11.691406 34.488281 11.941406 34.867188 12.273438 C 34.875 12.28125 34.878906 12.28125 34.878906 12.269531 C 34.878906 12.261719 34.878906 12.25 34.871094 12.242188 C 34.855469 12.207031 34.859375 12.203125 34.890625 12.230469 C 35.15625 12.449219 35.449219 12.589844 35.773438 12.652344 C 35.664062 12.878906 35.683594 13.089844 35.832031 13.285156 C 35.996094 13.5 36.195312 13.722656 36.421875 13.953125 C 36.835938 14.363281 37.226562 14.792969 37.597656 15.234375 C 37.972656 15.683594 38.34375 15.308594 38.496094 14.925781 C 39.332031 12.796875 39.425781 10.328125 39.242188 7.996094 C 39.191406 7.359375 39.097656 6.726562 38.960938 6.101562 C 38.734375 5.078125 38.214844 3.859375 36.976562 3.8125 C 36.160156 3.777344 35.273438 4.085938 34.53125 4.46875 C 33.453125 5.023438 32.511719 5.703125 31.710938 6.507812 C 31.4375 6.78125 31.230469 7.042969 31.082031 7.296875 C 30.957031 7.511719 30.953125 7.71875 31.070312 7.914062 Z M 0.394531 22.003906 C 0.375 21.992188 0.351562 21.988281 0.328125 21.992188 C 0.160156 22.019531 0.0429688 22.113281 -0.0273438 22.277344 C -0.488281 23.359375 -0.910156 24.417969 -1.292969 25.460938 C -1.339844 25.585938 -1.363281 25.746094 -1.242188 25.84375 C -0.886719 26.121094 -0.699219 25.738281 -0.59375 25.472656 C -0.160156 24.378906 0.214844 23.355469 0.539062 22.402344 C 0.597656 22.230469 0.550781 22.097656 0.394531 22.003906 Z M 1.992188 22.289062 C 1.949219 22.160156 1.867188 22.109375 1.734375 22.144531 C 1.578125 22.1875 1.457031 22.402344 1.402344 22.542969 C 0.964844 23.609375 0.558594 24.730469 0.183594 25.90625 C 0.167969 25.953125 0.167969 26 0.175781 26.046875 C 0.257812 26.425781 0.425781 26.484375 0.6875 26.222656 C 0.714844 26.199219 0.734375 26.167969 0.746094 26.136719 C 1.136719 25.132812 1.550781 23.964844 1.988281 22.625 C 2.027344 22.515625 2.027344 22.402344 1.992188 22.289062 Z M 3.507812 23.015625 C 3.539062 22.933594 3.535156 22.855469 3.496094 22.777344 C 3.460938 22.699219 3.402344 22.644531 3.320312 22.613281 L 3.304688 22.609375 C 3.226562 22.582031 3.144531 22.585938 3.066406 22.621094 C 2.988281 22.660156 2.933594 22.71875 2.90625 22.800781 L 1.832031 25.792969 C 1.804688 25.875 1.808594 25.953125 1.84375 26.035156 C 1.882812 26.113281 1.941406 26.164062 2.023438 26.195312 L 2.035156 26.199219 C 2.117188 26.226562 2.195312 26.222656 2.277344 26.1875 C 2.355469 26.148438 2.40625 26.089844 2.4375 26.007812 Z M 30.953125 28.3125 C 31.460938 27.132812 31.964844 25.917969 32.449219 24.699219 C 32.515625 24.53125 32.539062 24.371094 32.519531 24.226562 C 32.496094 24.0625 32.320312 23.992188 32.179688 24.082031 C 32.054688 24.167969 31.960938 24.273438 31.910156 24.390625 C 31.699219 24.867188 31.308594 25.777344 30.738281 27.121094 C 30.570312 27.515625 30.441406 27.882812 30.347656 28.222656 C 30.300781 28.398438 30.355469 28.550781 30.53125 28.609375 C 30.730469 28.675781 30.886719 28.46875 30.953125 28.3125 Z M 30.863281 24.550781 C 30.882812 24.429688 30.835938 24.34375 30.726562 24.296875 C 30.449219 24.171875 30.257812 24.429688 30.167969 24.652344 C 29.757812 25.65625 29.390625 26.605469 29.066406 27.503906 C 28.988281 27.714844 29.03125 27.878906 29.191406 28 C 29.214844 28.015625 29.238281 28.023438 29.265625 28.023438 C 29.433594 28.03125 29.542969 27.96875 29.59375 27.835938 C 29.898438 27.09375 30.222656 26.285156 30.566406 25.421875 C 30.683594 25.128906 30.8125 24.859375 30.863281 24.550781 Z M 32.402344 27.132812 C 32.253906 27.53125 32.160156 27.839844 32.128906 28.058594 C 32.109375 28.199219 32.15625 28.316406 32.277344 28.40625 C 32.289062 28.414062 32.304688 28.421875 32.320312 28.425781 C 32.515625 28.480469 32.648438 28.410156 32.722656 28.21875 L 33.90625 24.996094 C 33.917969 24.964844 33.921875 24.933594 33.917969 24.898438 C 33.882812 24.503906 33.703125 24.46875 33.382812 24.800781 C 33.359375 24.820312 33.339844 24.847656 33.328125 24.875 C 33.082031 25.398438 32.773438 26.148438 32.402344 27.132812 Z M 32.402344 27.132812 " fill-opacity="1" fill-rule="nonzero"/></g><g clip-path="url(#372230905d)"><path fill="#ff8170" d="M 7.328125 7.488281 C 7.222656 7.410156 7.136719 7.316406 7.0625 7.207031 C 6.007812 5.640625 4.574219 4.238281 2.839844 3.445312 C 2.148438 3.128906 1.191406 2.914062 0.671875 3.632812 C 0.433594 3.960938 0.226562 4.316406 0.0507812 4.695312 C -0.886719 6.730469 -1.316406 8.933594 -1.238281 11.308594 C -1.222656 11.765625 -1.152344 12.230469 -1.027344 12.703125 C -1.015625 12.746094 -0.988281 12.773438 -0.945312 12.789062 C -0.902344 12.800781 -0.863281 12.792969 -0.828125 12.761719 C -0.1875 12.199219 0.449219 11.707031 1.082031 11.285156 C 1.238281 11.183594 1.5625 10.96875 1.738281 11.117188 C 1.699219 11.285156 1.570312 11.457031 1.363281 11.632812 C 0.746094 12.152344 0.128906 12.648438 -0.488281 13.128906 C -1.261719 13.722656 -1.464844 13.046875 -1.5625 12.421875 C -1.644531 11.882812 -1.683594 11.34375 -1.6875 10.8125 C -1.691406 8.476562 -1.25 6.15625 -0.191406 4.101562 C -0.03125 3.789062 0.152344 3.492188 0.363281 3.210938 C 0.964844 2.402344 2.089844 2.5625 2.890625 2.898438 C 4.503906 3.574219 5.859375 4.71875 6.972656 6.125 C 7.261719 6.488281 7.5 6.886719 7.519531 7.339844 C 7.523438 7.449219 7.429688 7.5 7.328125 7.488281 Z M 7.328125 7.488281 " fill-opacity="1" fill-rule="nonzero"/></g><g clip-path="url(#289779eb50)"><path fill="#ffcfba" d="M 7.328125 7.488281 C 7.304688 7.550781 7.308594 7.597656 7.339844 7.628906 C 7.355469 7.648438 7.363281 7.667969 7.359375 7.691406 C 7.355469 7.730469 7.359375 7.769531 7.378906 7.800781 C 7.410156 7.859375 7.425781 7.886719 7.425781 7.890625 C 7.445312 7.953125 7.457031 8.019531 7.464844 8.089844 C 7.464844 8.128906 7.453125 8.15625 7.421875 8.175781 C 7.355469 8.214844 7.296875 8.265625 7.253906 8.332031 C 7.234375 8.359375 7.207031 8.378906 7.175781 8.394531 C 6.9375 8.5 6.699219 8.617188 6.464844 8.746094 C 6.238281 8.871094 6.003906 8.996094 5.761719 9.113281 C 5.476562 9.257812 5.195312 9.410156 4.921875 9.578125 C 4.832031 9.632812 4.738281 9.667969 4.640625 9.683594 C 4.53125 9.699219 4.425781 9.726562 4.332031 9.769531 C 3.921875 9.945312 3.554688 10.152344 3.230469 10.394531 C 3.179688 10.429688 3.132812 10.464844 3.082031 10.496094 C 2.972656 10.570312 2.863281 10.644531 2.75 10.710938 C 2.640625 10.78125 2.53125 10.832031 2.414062 10.867188 C 2.289062 10.902344 2.171875 10.953125 2.0625 11.019531 C 2.03125 11.035156 2.015625 11.0625 2.011719 11.097656 C 2.011719 11.109375 2.011719 11.121094 2.015625 11.128906 C 2.019531 11.148438 2.015625 11.152344 1.996094 11.152344 L 1.738281 11.117188 C 1.5625 10.96875 1.238281 11.183594 1.082031 11.285156 C 0.449219 11.707031 -0.1875 12.199219 -0.828125 12.761719 C -0.863281 12.792969 -0.902344 12.800781 -0.945312 12.789062 C -0.988281 12.773438 -1.015625 12.746094 -1.027344 12.703125 C -1.152344 12.230469 -1.222656 11.765625 -1.238281 11.308594 C -1.316406 8.933594 -0.886719 6.730469 0.0507812 4.695312 C 0.226562 4.316406 0.433594 3.960938 0.671875 3.632812 C 1.191406 2.914062 2.148438 3.128906 2.839844 3.445312 C 4.574219 4.238281 6.007812 5.640625 7.0625 7.207031 C 7.136719 7.316406 7.222656 7.410156 7.328125 7.488281 Z M 7.328125 7.488281 " fill-opacity="1" fill-rule="nonzero"/></g><g clip-path="url(#26a3672f14)"><path fill="#ff8170" d="M 35.773438 12.652344 C 35.964844 12.710938 36.136719 12.820312 36.296875 12.984375 C 36.867188 13.554688 37.382812 14.117188 37.84375 14.664062 C 37.863281 14.6875 37.886719 14.695312 37.917969 14.691406 C 37.945312 14.6875 37.964844 14.671875 37.976562 14.640625 C 38.324219 13.734375 38.550781 12.789062 38.648438 11.808594 C 38.824219 10.054688 38.75 8.320312 38.429688 6.601562 C 38.34375 6.152344 38.226562 5.726562 38.074219 5.320312 C 37.828125 4.671875 37.375 4.367188 36.714844 4.414062 C 36.296875 4.445312 35.882812 4.542969 35.476562 4.707031 C 33.859375 5.351562 32.601562 6.390625 31.464844 7.71875 C 31.371094 7.828125 31.242188 7.890625 31.070312 7.914062 C 30.953125 7.71875 30.957031 7.511719 31.082031 7.296875 C 31.230469 7.042969 31.4375 6.78125 31.710938 6.507812 C 32.511719 5.703125 33.453125 5.023438 34.53125 4.46875 C 35.273438 4.085938 36.160156 3.777344 36.976562 3.8125 C 38.214844 3.859375 38.734375 5.078125 38.960938 6.101562 C 39.097656 6.726562 39.191406 7.359375 39.242188 7.996094 C 39.425781 10.328125 39.332031 12.796875 38.496094 14.925781 C 38.34375 15.308594 37.972656 15.683594 37.597656 15.234375 C 37.226562 14.792969 36.835938 14.363281 36.421875 13.953125 C 36.195312 13.722656 35.996094 13.5 35.832031 13.285156 C 35.683594 13.089844 35.664062 12.878906 35.773438 12.652344 Z M 35.773438 12.652344 " fill-opacity="1" fill-rule="nonzero"/></g><g clip-path="url(#6c3dee62c3)"><path fill="#ffcfba" d="M 35.773438 12.652344 C 35.449219 12.589844 35.15625 12.449219 34.890625 12.230469 C 34.859375 12.203125 34.855469 12.207031 34.871094 12.242188 C 34.878906 12.25 34.878906 12.261719 34.878906 12.269531 C 34.878906 12.28125 34.875 12.28125 34.867188 12.273438 C 34.488281 11.941406 34.136719 11.691406 33.820312 11.523438 C 33.695312 11.457031 33.589844 11.367188 33.503906 11.25 C 33.496094 11.234375 33.480469 11.222656 33.460938 11.21875 C 33.339844 11.183594 33.238281 11.109375 33.152344 10.996094 C 33.128906 10.96875 33.097656 10.945312 33.058594 10.933594 C 33.03125 10.921875 33.003906 10.90625 32.984375 10.882812 C 32.871094 10.746094 32.746094 10.632812 32.613281 10.535156 C 32.566406 10.5 32.523438 10.464844 32.480469 10.421875 C 32.425781 10.367188 32.355469 10.332031 32.28125 10.320312 C 32.257812 10.316406 32.238281 10.304688 32.222656 10.289062 C 32.15625 10.21875 32.082031 10.171875 32 10.148438 C 31.972656 10.140625 31.949219 10.121094 31.9375 10.097656 C 31.910156 10.03125 31.867188 9.992188 31.808594 9.980469 C 31.773438 9.972656 31.746094 9.953125 31.726562 9.925781 C 31.671875 9.855469 31.605469 9.816406 31.519531 9.8125 C 31.488281 9.8125 31.460938 9.800781 31.4375 9.78125 C 31.316406 9.683594 31.199219 9.578125 31.082031 9.464844 C 30.796875 9.1875 30.699219 8.859375 30.785156 8.480469 C 30.804688 8.394531 30.851562 8.296875 30.921875 8.195312 C 30.988281 8.101562 31.035156 8.007812 31.070312 7.914062 C 31.242188 7.890625 31.371094 7.828125 31.464844 7.71875 C 32.601562 6.390625 33.859375 5.351562 35.476562 4.707031 C 35.882812 4.542969 36.296875 4.445312 36.714844 4.414062 C 37.375 4.367188 37.828125 4.671875 38.074219 5.320312 C 38.226562 5.726562 38.34375 6.152344 38.429688 6.601562 C 38.75 8.320312 38.824219 10.054688 38.648438 11.808594 C 38.550781 12.789062 38.324219 13.734375 37.976562 14.640625 C 37.964844 14.671875 37.945312 14.6875 37.917969 14.691406 C 37.886719 14.695312 37.863281 14.6875 37.84375 14.664062 C 37.382812 14.117188 36.867188 13.554688 36.296875 12.984375 C 36.136719 12.820312 35.964844 12.710938 35.773438 12.652344 Z M 35.773438 12.652344 " fill-opacity="1" fill-rule="nonzero"/></g><g clip-path="url(#97de143be8)"><path fill="#ffe6c8" d="M 24.277344 22.179688 C 23.96875 22.679688 23.777344 23.261719 23.707031 23.925781 C 23.648438 24.507812 23.773438 25.019531 24.082031 25.460938 C 24.765625 26.4375 25.734375 26.839844 26.984375 26.667969 C 27.402344 26.859375 27.800781 27.0625 28.183594 27.28125 C 28.4375 27.421875 28.65625 27.601562 28.839844 27.824219 C 29.132812 28.171875 29.40625 28.546875 29.65625 28.941406 C 30.121094 29.679688 30.355469 30.53125 30.570312 31.382812 C 30.960938 32.921875 30.753906 34.535156 30.046875 35.957031 C 29.769531 36.519531 29.363281 36.976562 28.828125 37.332031 C 28.019531 36.742188 27.0625 36.359375 26.039062 36.394531 C 24.5625 36.445312 23.484375 37.117188 22.804688 38.40625 C 22.660156 38.679688 22.554688 38.957031 22.496094 39.242188 C 22.1875 40.710938 22.46875 42.050781 23.339844 43.257812 C 23.664062 43.710938 24.019531 44.101562 24.398438 44.425781 C 24.527344 44.535156 24.6875 44.628906 24.886719 44.714844 C 25.265625 45.027344 25.65625 45.328125 26.054688 45.613281 C 26.894531 46.210938 27.445312 47.589844 27.671875 48.597656 C 27.949219 49.820312 28.039062 51.085938 27.9375 52.394531 C 27.8125 54.03125 27.269531 55.800781 26.234375 57.109375 C 24.929688 58.757812 23.363281 60.125 21.265625 60.242188 C 20.5625 60.28125 19.902344 60.261719 19.285156 60.1875 C 19.054688 60.160156 18.839844 60.085938 18.640625 59.964844 C 18.492188 59.875 18.332031 59.816406 18.160156 59.785156 C 17.734375 59.703125 17.304688 59.695312 16.871094 59.757812 L 13.375 59.394531 C 12.789062 59.285156 12.207031 59.207031 11.632812 59.164062 C 10.871094 59.105469 10.371094 59.058594 10.136719 59.023438 C 8.574219 58.78125 7.054688 58.371094 5.582031 57.792969 C 5.292969 57.679688 4.945312 57.472656 4.535156 57.167969 C 4.339844 57.023438 4.171875 56.851562 4.035156 56.652344 C 3.761719 56.261719 3.5 55.871094 3.242188 55.484375 C 2.582031 54.492188 2.101562 53.386719 1.792969 52.175781 C 1.554688 51.242188 1.558594 50.246094 1.65625 49.300781 C 1.761719 48.269531 1.917969 47.289062 2.125 46.355469 C 2.34375 45.367188 2.632812 44.371094 2.996094 43.371094 C 3.425781 42.179688 3.792969 40.96875 4.171875 39.75 C 4.476562 38.753906 4.648438 37.886719 4.683594 37.140625 C 4.6875 37.050781 4.6875 36.96875 4.683594 36.890625 C 4.664062 36.640625 4.417969 36.421875 4.21875 36.296875 C 3.867188 36.074219 3.507812 35.859375 3.144531 35.660156 L 3.175781 35.550781 C 3.1875 35.515625 3.179688 35.488281 3.160156 35.460938 C 2.277344 34.335938 1.894531 33.035156 2.011719 31.566406 C 2.15625 29.710938 2.804688 28.128906 3.945312 26.820312 C 4.460938 26.230469 5.144531 25.71875 5.996094 25.28125 C 6.339844 25.347656 6.578125 25.390625 6.710938 25.410156 C 7.75 25.539062 8.703125 24.980469 9.3125 24.164062 C 9.632812 23.734375 9.78125 23.207031 9.753906 22.574219 C 9.71875 21.707031 9.441406 20.972656 8.925781 20.375 C 9.007812 19.667969 9.289062 19.070312 9.777344 18.578125 C 10.277344 18.078125 10.859375 17.621094 11.523438 17.203125 C 12.25 16.746094 12.988281 16.328125 13.800781 16.121094 C 14.363281 15.976562 14.976562 15.875 15.644531 15.820312 C 17.292969 15.683594 18.78125 15.996094 20.21875 16.828125 C 21.316406 17.460938 22.230469 18.195312 22.96875 19.023438 C 23.316406 19.414062 23.601562 19.839844 23.820312 20.300781 C 24.089844 20.851562 24.242188 21.476562 24.277344 22.179688 Z M 16.132812 25.558594 C 16.625 26.246094 17.53125 26.722656 18.402344 26.578125 C 19.066406 26.464844 19.644531 25.949219 19.671875 25.261719 C 19.675781 25.113281 19.613281 24.902344 19.453125 24.859375 C 19.171875 24.785156 19.082031 25.089844 19.019531 25.289062 C 18.902344 25.664062 18.46875 25.898438 18.109375 25.90625 C 17.441406 25.921875 16.625 25.46875 16.511719 24.777344 C 16.449219 24.382812 15.871094 24.296875 15.699219 24.679688 C 15.402344 25.335938 14.734375 25.691406 14.039062 25.585938 C 13.683594 25.53125 13.332031 25.28125 13.289062 24.90625 C 13.269531 24.761719 13.289062 24.507812 13.175781 24.398438 C 12.929688 24.164062 12.660156 24.425781 12.625 24.6875 C 12.523438 25.402344 13 25.972656 13.648438 26.207031 C 14.519531 26.519531 15.390625 26.234375 16.015625 25.554688 C 16.058594 25.507812 16.097656 25.511719 16.132812 25.558594 Z M 16.132812 25.558594 " fill-opacity="1" fill-rule="nonzero"/></g><path fill="#241843" d="M 8.925781 20.375 C 9.441406 20.972656 9.71875 21.707031 9.753906 22.574219 C 9.78125 23.207031 9.632812 23.734375 9.3125 24.164062 C 8.703125 24.980469 7.75 25.539062 6.710938 25.410156 C 6.578125 25.390625 6.339844 25.347656 5.996094 25.28125 C 5.339844 24.9375 4.789062 24.554688 4.476562 23.878906 C 3.816406 22.445312 4.296875 20.921875 5.5625 19.996094 C 5.96875 19.695312 6.421875 19.535156 6.925781 19.511719 C 7.472656 19.484375 7.972656 19.636719 8.417969 19.972656 C 8.589844 20.101562 8.761719 20.234375 8.925781 20.375 Z M 8.925781 20.375 " fill-opacity="1" fill-rule="nonzero"/><path fill="#241843" d="M 26.984375 26.667969 C 25.734375 26.839844 24.765625 26.4375 24.082031 25.460938 C 23.773438 25.019531 23.648438 24.507812 23.707031 23.925781 C 23.777344 23.261719 23.96875 22.679688 24.277344 22.179688 C 24.679688 21.640625 25.109375 21.261719 25.570312 21.039062 C 26.535156 20.570312 27.59375 20.863281 28.351562 21.59375 C 29.402344 22.605469 29.667969 24.1875 28.847656 25.425781 C 28.429688 26.046875 27.808594 26.464844 26.984375 26.667969 Z M 26.984375 26.667969 " fill-opacity="1" fill-rule="nonzero"/><g clip-path="url(#83f95c871b)"><path fill="#ff8170" d="M 0.394531 22.003906 C 0.550781 22.097656 0.597656 22.230469 0.539062 22.402344 C 0.214844 23.355469 -0.160156 24.378906 -0.59375 25.472656 C -0.699219 25.738281 -0.886719 26.121094 -1.242188 25.84375 C -1.363281 25.746094 -1.339844 25.585938 -1.292969 25.460938 C -0.910156 24.417969 -0.488281 23.359375 -0.0273438 22.277344 C 0.0429688 22.113281 0.160156 22.019531 0.328125 21.992188 C 0.351562 21.988281 0.375 21.992188 0.394531 22.003906 Z M 0.394531 22.003906 " fill-opacity="1" fill-rule="nonzero"/></g><g clip-path="url(#cb8e29fec3)"><path fill="#ff8170" d="M 1.992188 22.289062 C 2.027344 22.402344 2.027344 22.515625 1.988281 22.625 C 1.550781 23.964844 1.136719 25.132812 0.746094 26.136719 C 0.734375 26.167969 0.714844 26.199219 0.6875 26.222656 C 0.425781 26.484375 0.257812 26.425781 0.175781 26.046875 C 0.167969 26 0.167969 25.953125 0.183594 25.90625 C 0.558594 24.730469 0.964844 23.609375 1.402344 22.542969 C 1.457031 22.402344 1.578125 22.1875 1.734375 22.144531 C 1.867188 22.109375 1.949219 22.160156 1.992188 22.289062 Z M 1.992188 22.289062 " fill-opacity="1" fill-rule="nonzero"/></g><path fill="#ff8170" d="M 3.304688 22.609375 L 3.320312 22.613281 C 3.402344 22.644531 3.460938 22.699219 3.496094 22.777344 C 3.535156 22.855469 3.539062 22.933594 3.507812 23.015625 L 2.4375 26.007812 C 2.40625 26.089844 2.355469 26.148438 2.277344 26.1875 C 2.195312 26.222656 2.117188 26.226562 2.035156 26.199219 L 2.023438 26.195312 C 1.941406 26.164062 1.882812 26.113281 1.84375 26.035156 C 1.808594 25.953125 1.804688 25.875 1.832031 25.792969 L 2.90625 22.800781 C 2.933594 22.71875 2.988281 22.660156 3.066406 22.621094 C 3.144531 22.585938 3.226562 22.582031 3.304688 22.609375 Z M 3.304688 22.609375 " fill-opacity="1" fill-rule="nonzero"/><path fill="#ff8170" d="M 32.449219 24.699219 C 31.964844 25.917969 31.460938 27.132812 30.953125 28.3125 C 30.886719 28.46875 30.730469 28.675781 30.53125 28.609375 C 30.355469 28.550781 30.300781 28.398438 30.347656 28.222656 C 30.441406 27.882812 30.570312 27.515625 30.738281 27.121094 C 31.308594 25.777344 31.699219 24.867188 31.910156 24.390625 C 31.960938 24.273438 32.054688 24.167969 32.179688 24.082031 C 32.320312 23.992188 32.496094 24.0625 32.519531 24.226562 C 32.539062 24.371094 32.515625 24.53125 32.449219 24.699219 Z M 32.449219 24.699219 " fill-opacity="1" fill-rule="nonzero"/><path fill="#ff8170" d="M 30.863281 24.550781 C 30.8125 24.859375 30.683594 25.128906 30.566406 25.421875 C 30.222656 26.285156 29.898438 27.09375 29.59375 27.835938 C 29.542969 27.96875 29.433594 28.03125 29.265625 28.023438 C 29.238281 28.023438 29.214844 28.015625 29.191406 28 C 29.03125 27.878906 28.988281 27.714844 29.066406 27.503906 C 29.390625 26.605469 29.757812 25.65625 30.167969 24.652344 C 30.257812 24.429688 30.449219 24.171875 30.726562 24.296875 C 30.835938 24.34375 30.882812 24.429688 30.863281 24.550781 Z M 30.863281 24.550781 " fill-opacity="1" fill-rule="nonzero"/><path fill="#241843" d="M 16.132812 25.558594 C 16.097656 25.511719 16.058594 25.507812 16.015625 25.554688 C 15.390625 26.234375 14.519531 26.519531 13.648438 26.207031 C 13 25.972656 12.523438 25.402344 12.625 24.6875 C 12.660156 24.425781 12.929688 24.164062 13.175781 24.398438 C 13.289062 24.507812 13.269531 24.761719 13.289062 24.90625 C 13.332031 25.28125 13.683594 25.53125 14.039062 25.585938 C 14.734375 25.691406 15.402344 25.335938 15.699219 24.679688 C 15.871094 24.296875 16.449219 24.382812 16.511719 24.777344 C 16.625 25.46875 17.441406 25.921875 18.109375 25.90625 C 18.46875 25.898438 18.902344 25.664062 19.019531 25.289062 C 19.082031 25.089844 19.171875 24.785156 19.453125 24.859375 C 19.613281 24.902344 19.675781 25.113281 19.671875 25.261719 C 19.644531 25.949219 19.066406 26.464844 18.402344 26.578125 C 17.53125 26.722656 16.625 26.246094 16.132812 25.558594 Z M 16.132812 25.558594 " fill-opacity="1" fill-rule="nonzero"/><path fill="#ff8170" d="M 32.402344 27.132812 C 32.773438 26.148438 33.082031 25.398438 33.328125 24.875 C 33.339844 24.847656 33.359375 24.820312 33.382812 24.800781 C 33.703125 24.46875 33.882812 24.503906 33.917969 24.898438 C 33.921875 24.933594 33.917969 24.964844 33.90625 24.996094 L 32.722656 28.21875 C 32.648438 28.410156 32.515625 28.480469 32.320312 28.425781 C 32.304688 28.421875 32.289062 28.414062 32.277344 28.40625 C 32.15625 28.316406 32.109375 28.199219 32.128906 28.058594 C 32.160156 27.839844 32.253906 27.53125 32.402344 27.132812 Z M 32.402344 27.132812 " fill-opacity="1" fill-rule="nonzero"/><g clip-path="url(#7a37101a6e)"><path fill="#ff8170" d="M 0.542969 34.5625 L 3.144531 35.660156 C 3.507812 35.859375 3.867188 36.074219 4.21875 36.296875 C 4.417969 36.421875 4.664062 36.640625 4.683594 36.890625 C 4.6875 36.96875 4.6875 37.050781 4.683594 37.140625 C 4.515625 37.222656 4.355469 37.203125 4.210938 37.089844 C 3.410156 36.453125 2.410156 35.886719 1.414062 35.636719 C 1.269531 35.597656 1.148438 35.558594 1.058594 35.515625 Z M 0.542969 34.5625 " fill-opacity="1" fill-rule="nonzero"/></g></svg>